<svg xmlns="http://www.w3.org/2000/svg" xml:space="preserve" width="512" height="512" id="bioinformatics">
  <path fill="#C798F4" fill-rule="evenodd" d="M184.449 443.74h143.102l-21.457-114.564H205.906z" clip-rule="evenodd"></path>
  <path fill="#C798F4" fill-rule="evenodd" d="M34.482 65.635H477.52c9.053 0 16.461 8.316 16.461 18.481v246.908c0 10.159-7.408 18.482-16.461 18.482H34.482c-9.055 0-16.463-8.323-16.463-18.482V84.116c.001-10.165 7.409-18.481 16.463-18.481" clip-rule="evenodd"></path>
  <path fill="#C798F4" fill-rule="evenodd" d="M46.797 92.4h421.568v229.471H46.797z" clip-rule="evenodd"></path>
  <path fill="#C798F4" fill-rule="evenodd" d="M256 186.342c11.719 0 21.225 9.51 21.225 21.226 0 11.723-9.506 21.224-21.225 21.224s-21.225-9.501-21.225-21.224c0-11.716 9.506-21.226 21.225-21.226M256 110.78c7.471 0 13.529 6.054 13.529 13.524S263.47 137.837 256 137.837s-13.525-6.063-13.525-13.533S248.531 110.78 256 110.78M256 277.296c7.471 0 13.529 6.063 13.529 13.533S263.47 304.354 256 304.354s-13.525-6.056-13.525-13.525c0-7.471 6.056-13.533 13.525-13.533" clip-rule="evenodd"></path>
  <circle cx="172.857" cy="207.567" r="13.596" fill="#C798F4" fill-rule="evenodd" clip-rule="evenodd"></circle>
  <circle cx="339.08" cy="207.567" r="13.596" fill="#C798F4" fill-rule="evenodd" clip-rule="evenodd"></circle>
  <g fill="#C798F4" fill-rule="evenodd" clip-rule="evenodd">
    <path d="M197.129 125.096c13.027 0 23.592 10.568 23.592 23.596s-10.564 23.596-23.592 23.596c-13.031 0-23.596-10.568-23.596-23.596s10.565-23.596 23.596-23.596M314.875 125.096c13.027 0 23.598 10.568 23.598 23.596s-10.57 23.596-23.598 23.596c-13.025 0-23.596-10.568-23.596-23.596s10.571-23.596 23.596-23.596"></path>
  </g>
  <g fill="#C798F4" fill-rule="evenodd" clip-rule="evenodd">
    <path d="M197.129 242.846c13.027 0 23.592 10.569 23.592 23.598 0 13.026-10.564 23.595-23.592 23.595-13.031 0-23.596-10.568-23.596-23.595 0-13.029 10.565-23.598 23.596-23.598M314.875 242.846c13.027 0 23.598 10.569 23.598 23.598 0 13.026-10.57 23.595-23.598 23.595-13.025 0-23.596-10.568-23.596-23.595 0-13.029 10.571-23.598 23.596-23.598"></path>
  </g>
  <path fill="#C798F4" fill-rule="evenodd" d="M118.373 281.722c7.508 0 13.6 6.088 13.6 13.598s-6.092 13.596-13.6 13.596c-7.506 0-13.598-6.086-13.598-13.596s6.092-13.598 13.598-13.598" clip-rule="evenodd"></path>
  <circle cx="71.287" cy="228.622" r="13.6" fill="#C798F4" fill-rule="evenodd" clip-rule="evenodd"></circle>
  <path fill="#C798F4" fill-rule="evenodd" d="M405.021 182.311c7.51 0 13.602 6.087 13.602 13.597s-6.092 13.604-13.602 13.604c-7.508 0-13.596-6.095-13.596-13.604s6.089-13.597 13.596-13.597M440.596 115.356c7.504 0 13.596 6.087 13.596 13.596s-6.092 13.598-13.596 13.598c-7.51 0-13.602-6.088-13.602-13.598 0-7.509 6.092-13.596 13.602-13.596" clip-rule="evenodd"></path>
  <g fill="#6B03FF">
    <path d="M478.703 59H35.301C22.461 59 12 70.019 12 83.975v247.112C12 345.035 22.461 356 35.301 356H194.86l-15.611 84h-55.514c-3.758 0-6.805 2.742-6.805 6.5s3.047 6.5 6.805 6.5h266.527c3.758 0 6.803-2.742 6.803-6.5s-3.045-6.5-6.803-6.5h-55.513l-15.604-84h159.559C491.539 356 502 345.035 502 331.087V83.975C502 70.019 491.539 59 478.703 59M320.9 440H193.094l15.611-84h96.591zM488 331.087c0 6.337-4.057 11.913-9.297 11.913H35.301C30.055 343 26 337.424 26 331.087V83.975C26 77.638 30.055 72 35.301 72h443.402c5.24 0 9.297 5.638 9.297 11.975z"></path>
    <path d="M477 91.804A6.805 6.805 0 0 0 470.195 85H47.805A6.805 6.805 0 0 0 41 91.804v229.393a6.805 6.805 0 0 0 6.805 6.804h422.391a6.805 6.805 0 0 0 6.805-6.804V91.804zM54 238.713c4 6.143 10.348 10.302 17.922 10.302.546 0 1.189-.04 1.725-.082l27.521 36.886a20 20 0 0 0-2.349 9.473c0 9.525 6.592 17.709 15.429 19.709H54zm18.137-3.307c-3.75 0-6.805-3.054-6.805-6.804 0-3.758 3.055-6.812 6.805-6.812s6.803 3.054 6.803 6.812c-.001 3.751-3.053 6.804-6.803 6.804m47.123 66.757c-3.754 0-6.807-3.054-6.807-6.812 0-3.75 3.053-6.804 6.807-6.804s6.809 3.054 6.809 6.804c-.001 3.758-3.055 6.812-6.809 6.812M463 315H124.272c8.467-2 14.823-9.527 15.343-18.525l35.426-10.226c5.582 6.478 13.835 10.605 23.037 10.605 7.834 0 14.986-2.972 20.385-7.854a89.4 89.4 0 0 0 18.74 6.458c2.095 9.003 10.166 15.737 19.799 15.737 9.631 0 17.702-6.732 19.795-15.737a89 89 0 0 0 18.741-6.454c5.398 4.885 12.552 7.866 20.388 7.866 16.771 0 30.416-13.647 30.416-30.419 0-7.835-2.979-14.987-7.861-20.386a89.3 89.3 0 0 0 6.447-18.708c8.955-2.161 15.635-10.221 15.635-19.83 0-9.603-6.682-17.663-15.637-19.824a89.2 89.2 0 0 0-6.447-18.709 30.6 30.6 0 0 0 4.278-6.076l44.328 25.711a20.3 20.3 0 0 0-1.349 7.236c0 11.25 9.156 20.412 20.41 20.412s20.412-9.162 20.412-20.412c0-5.042-1.847-9.655-4.887-13.222l18.859-33.438c.403.024.803.062 1.213.062 11.258 0 20.416-9.161 20.416-20.42 0-11.258-9.158-20.411-20.416-20.411s-20.416 9.153-20.416 20.411c0 5.93 2.556 11.261 6.605 14.995l-18.029 31.966a20.3 20.3 0 0 0-3.758-.362c-3.658 0-7.085.98-10.058 2.673l-49.764-28.861c.005-.216.017-.431.017-.647 0-16.771-13.645-30.419-30.416-30.419-7.835 0-14.986 2.979-20.385 7.863a89.4 89.4 0 0 0-18.744-6.457c-2.096-9.004-10.166-15.741-19.795-15.741-9.633 0-17.703 6.737-19.798 15.741a89.2 89.2 0 0 0-18.744 6.454c-5.397-4.882-12.549-7.86-20.382-7.86-16.773 0-30.416 13.647-30.416 30.419 0 7.835 2.979 14.986 7.861 20.383a89 89 0 0 0-6.442 18.692c-8.991 2.135-15.706 10.213-15.706 19.842 0 9.635 6.715 17.715 15.706 19.849a89.3 89.3 0 0 0 6.442 18.688c-4.883 5.399-7.861 12.552-7.861 20.387 0 2.597.328 5.118.943 7.526l-32.778 9.491c-3.709-5.155-9.745-8.529-16.567-8.529-2.825 0-5.518.578-7.966 1.619L86.42 243.157c3.775-3.707 6.127-8.86 6.127-14.555 0-11.258-9.371-20.419-20.625-20.419-7.574 0-13.922 4.158-17.922 10.304V99h409zM238.782 133.195c3.327 6.71 10.233 11.349 18.22 11.349 7.984 0 14.889-4.639 18.216-11.349a75.5 75.5 0 0 1 12.438 4.204 30.3 30.3 0 0 0-2.15 11.211c0 5.927 1.71 11.458 4.654 16.139l-18.733 18.735c-4.218-2.539-9.152-4.003-14.425-4.003s-10.209 1.464-14.426 4.004l-18.734-18.736a30.2 30.2 0 0 0 4.654-16.139c0-3.959-.769-7.739-2.15-11.212a75.6 75.6 0 0 1 12.436-4.203m11.484-8.991a6.744 6.744 0 0 1 6.736-6.74c3.709 0 6.732 3.021 6.732 6.74 0 3.71-3.023 6.732-6.732 6.732-3.715.001-6.736-3.022-6.736-6.732m24.951 157.655c-3.328-6.709-10.232-11.342-18.215-11.342-7.987 0-14.894 4.635-18.221 11.348a76 76 0 0 1-12.436-4.204 30.2 30.2 0 0 0 2.15-11.21 30.24 30.24 0 0 0-4.655-16.144l18.739-18.736a27.9 27.9 0 0 0 14.422 4.002 27.9 27.9 0 0 0 14.421-4.001l18.738 18.736a30.23 30.23 0 0 0-4.655 16.143c0 3.956.768 7.734 2.148 11.204a75.5 75.5 0 0 1-12.436 4.204m-11.483 8.998c0 3.711-3.023 6.732-6.732 6.732-3.715 0-6.736-3.021-6.736-6.732 0-3.71 3.021-6.732 6.736-6.732 3.709 0 6.732 3.022 6.732 6.732m-65.656-41.217c9.268 0 16.811 7.539 16.811 16.812 0 9.264-7.543 16.812-16.811 16.812-9.27 0-16.809-7.548-16.809-16.812.001-9.273 7.54-16.812 16.809-16.812m73.361-42.113c0 7.958-6.479 14.438-14.438 14.438s-14.439-6.479-14.439-14.438 6.48-14.438 14.439-14.438 14.438 6.479 14.438 14.438m27.674 58.924c0-9.272 7.545-16.812 16.813-16.812s16.807 7.539 16.807 16.812c0 9.264-7.539 16.812-16.807 16.812s-16.813-7.548-16.813-16.812m41.033-52.112c-3.754 0-6.809-3.054-6.809-6.812 0-3.75 3.055-6.805 6.809-6.805s6.807 3.055 6.807 6.805c0 3.758-3.053 6.812-6.807 6.812m-8.846 11.562a75.6 75.6 0 0 1-4.167 12.278 30.25 30.25 0 0 0-11.207-2.148 30.23 30.23 0 0 0-16.141 4.654l-18.74-18.736a27.87 27.87 0 0 0 4.002-14.422c0-5.27-1.463-10.202-3.999-14.418l18.736-18.739a30.25 30.25 0 0 0 16.142 4.652c3.956 0 7.734-.767 11.205-2.147a76 76 0 0 1 4.17 12.285c-6.834 3.305-11.57 10.287-11.57 18.367-.001 8.086 4.736 15.069 11.569 18.374m-15.374-60.487c-9.268 0-16.813-7.539-16.813-16.804 0-9.271 7.545-16.812 16.813-16.812s16.807 7.54 16.807 16.812c-.001 9.265-7.54 16.804-16.807 16.804M214.889 148.61c0 9.265-7.543 16.804-16.811 16.804-9.27 0-16.809-7.539-16.809-16.804 0-9.271 7.539-16.812 16.809-16.812 9.268.001 16.811 7.541 16.811 16.812m-41.1 52.113c3.75 0 6.805 3.055 6.805 6.805 0 3.758-3.055 6.812-6.805 6.812-3.754 0-6.807-3.054-6.807-6.812 0-3.751 3.053-6.805 6.807-6.805m8.907-11.533a75.4 75.4 0 0 1 4.181-12.313 30.3 30.3 0 0 0 11.201 2.146 30.24 30.24 0 0 0 16.142-4.653l18.735 18.739a27.9 27.9 0 0 0-4 14.419 27.9 27.9 0 0 0 4.004 14.426l-18.737 18.734a30.23 30.23 0 0 0-16.144-4.656c-3.957 0-7.736.768-11.207 2.149a75.6 75.6 0 0 1-4.174-12.311c6.798-3.318 11.504-10.282 11.504-18.343 0-8.054-4.707-15.019-11.505-18.337m230.255 6.675c0 3.75-3.055 6.804-6.805 6.804s-6.803-3.054-6.803-6.804c0-3.758 3.053-6.812 6.803-6.812s6.805 3.054 6.805 6.812m21.987-67.017c0-3.75 3.053-6.804 6.807-6.804s6.809 3.054 6.809 6.804c0 3.759-3.055 6.813-6.809 6.813s-6.807-3.055-6.807-6.813"></path>
    <path d="M76.771 125h75.748c3.758 0 6.805-3.242 6.805-7s-3.047-7-6.805-7H76.771c-3.758 0-6.803 3.242-6.803 7s3.046 7 6.803 7M76.771 153h37.873c3.758 0 6.803-2.742 6.803-6.5s-3.045-6.5-6.803-6.5H76.771c-3.758 0-6.803 2.742-6.803 6.5s3.046 6.5 6.803 6.5M395.501 269.877c-3.758 0-6.501 3.046-6.501 6.804v19.248c0 3.758 2.743 6.804 6.501 6.804s6.499-3.046 6.499-6.804v-19.248c0-3.758-2.741-6.804-6.499-6.804M417.999 256.403c-3.758 0-6.999 3.046-6.999 6.804v32.722c0 3.758 3.241 6.804 6.999 6.804s7.001-3.046 7.001-6.804v-32.722c0-3.758-3.243-6.804-7.001-6.804M440.499 242.337c-3.758 0-6.499 3.046-6.499 6.804v46.788c0 3.758 2.741 6.804 6.499 6.804s6.501-3.046 6.501-6.804v-46.788c0-3.758-2.743-6.804-6.501-6.804"></path>
  </g>
</svg>
