<svg xmlns="http://www.w3.org/2000/svg" fill-rule="evenodd" stroke-linejoin="round" stroke-miterlimit="2" clip-rule="evenodd" viewBox="0 0 48 48" id="id-card">
  <g>
    <path fill="#8fe0ef" d="M44,14c0,-0.796 -0.316,-1.559 -0.879,-2.121c-0.562,-0.563 -1.325,-0.879 -2.121,-0.879c-6.568,0 -27.432,-0 -34,-0c-0.796,-0 -1.559,0.316 -2.121,0.879c-0.563,0.562 -0.879,1.325 -0.879,2.121c0,4.52 0,15.48 0,20c-0,0.796 0.316,1.559 0.879,2.121c0.562,0.563 1.325,0.879 2.121,0.879c6.568,-0 27.432,-0 34,-0c0.796,0 1.559,-0.316 2.121,-0.879c0.563,-0.562 0.879,-1.325 0.879,-2.121l-0,-20Z"></path>
    <path fill="#30a2ff" d="M44,14c0,-0.796 -0.316,-1.559 -0.879,-2.121c-0.562,-0.563 -1.325,-0.879 -2.121,-0.879c-6.568,0 -27.432,-0 -34,-0c-0.796,-0 -1.559,0.316 -2.121,0.879c-0.563,0.562 -0.879,1.325 -0.879,2.121c0,4.52 0,15.48 0,20c-0,0.796 0.316,1.559 0.879,2.121c0.562,0.563 1.325,0.879 2.121,0.879c6.568,-0 27.432,-0 34,-0c0.796,0 1.559,-0.316 2.121,-0.879c0.563,-0.562 0.879,-1.325 0.879,-2.121l-0,-20Zm-2,0l-0,20c0,0.265 -0.105,0.52 -0.293,0.707c-0.187,0.188 -0.442,0.293 -0.707,0.293l-34,0c-0.265,0 -0.52,-0.105 -0.707,-0.293c-0.188,-0.187 -0.293,-0.442 -0.293,-0.707l0,-20c-0,-0.265 0.105,-0.52 0.293,-0.707c0.187,-0.188 0.442,-0.293 0.707,-0.293l34,-0c0.265,-0 0.52,0.105 0.707,0.293c0.188,0.187 0.293,0.442 0.293,0.707Z"></path>
    <path fill="#f5fef7" d="M24,19c-0,-1.657 -1.343,-3 -3,-3l-10,-0c-1.657,0 -3,1.343 -3,3l-0,10c0,1.657 1.343,3 3,3l10,0c1.657,-0 3,-1.343 3,-3l-0,-10Z"></path>
    <path fill="#30a2ff" d="M24,19c-0,-1.657 -1.343,-3 -3,-3l-10,0c-1.657,0 -3,1.343 -3,3l-0,10c0,1.657 1.343,3 3,3l10,0c1.657,-0 3,-1.343 3,-3l-0,-10Zm-2,-0l-0,10c-0,0.552 -0.448,1 -1,1c-0,0 -10,-0 -10,-0c-0.552,-0 -1,-0.448 -1,-1c-0,-0 0,-10 0,-10c0,-0.552 0.448,-1 1,-1c0,0 10,0 10,0c0.552,0 1,0.448 1,1Z"></path>
    <path fill="#30a2ff" d="M12.556,27.649c1.101,0.546 2.256,0.468 3.433,-0.34c1.12,0.832 2.285,0.9 3.474,0.307c0.494,-0.246 0.695,-0.847 0.449,-1.341c-0.246,-0.494 -0.847,-0.695 -1.341,-0.449c-0.639,0.319 -1.236,0.104 -1.828,-0.516c-0.379,-0.397 -1.006,-0.415 -1.406,-0.041c-0.664,0.621 -1.275,0.894 -1.893,0.588c-0.494,-0.245 -1.095,-0.043 -1.34,0.452c-0.245,0.494 -0.043,1.095 0.452,1.34Z"></path>
    <ellipse cx="13" cy="21.5" fill="#30a2ff" rx="1" ry="1.5"></ellipse>
    <ellipse cx="19" cy="21.5" fill="#30a2ff" rx="1" ry="1.5"></ellipse>
    <path fill="#30a2ff" d="M32.988 23l6.012 0c.552 0 1-.448 1-1 0-.552-.448-1-1-1l-6.012 0c-.552 0-1 .448-1 1 0 .552.448 1 1 1zm-5.988 0l1.987 0c.552 0 1-.448 1-1 0-.552-.448-1-1-1l-1.987 0c-.552 0-1 .448-1 1 0 .552.448 1 1 1zM27 19l12 0c.552 0 1-.448 1-1 0-.552-.448-1-1-1l-12 0c-.552 0-1 .448-1 1 0 .552.448 1 1 1zM32.988 27l6.012 0c.552 0 1-.448 1-1 0-.552-.448-1-1-1l-6.012 0c-.552 0-1 .448-1 1 0 .552.448 1 1 1zm-5.988 0l1.987 0c.552 0 1-.448 1-1 0-.552-.448-1-1-1l-1.987 0c-.552 0-1 .448-1 1 0 .552.448 1 1 1zM32.988 31l6.012 0c.552 0 1-.448 1-1 0-.552-.448-1-1-1l-6.012 0c-.552 0-1 .448-1 1 0 .552.448 1 1 1zm-5.988 0l1.987 0c.552 0 1-.448 1-1 0-.552-.448-1-1-1l-1.987 0c-.552 0-1 .448-1 1 0 .552.448 1 1 1z"></path>
  </g>
</svg>
