<svg xmlns="http://www.w3.org/2000/svg" enable-background="new 0 0 500 510" viewBox="0 0 500 510" id="skills">
  <path fill="#bedef0" d="M200,345c0-24.85,20.15-45,45-45c12.42,0,23.68,5.04,31.82,13.18
						c8.14,8.14,13.18,19.4,13.18,31.82v45h-90V345z"></path>
  <path fill="#bedef0" d="M280,149.72c44.76,8.98,83.41,34.86,109,70.69
						c20.7,28.95,32.88,64.41,32.88,102.71c0,2.12-0.05,4.24-0.12,6.34c-1.48,42.11-17.68,80.48-43.64,110.11
						C345.72,476.61,298.08,500,244.99,500c-97.68,0-176.87-79.19-176.87-176.88c0-34.17,9.69-66.08,26.47-93.12
						c18.03-29.05,44.24-52.5,75.41-67.11c21.35-10.01,45.03-15.88,70-16.57c1.66-0.05,3.32-0.07,4.99-0.07
						C256.97,146.25,268.68,147.44,280,149.72z M369.92,327.67c0.05-1.51,0.08-3.03,0.08-4.55c0-27.47-8.74-52.91-23.58-73.67
						c-23-32.2-60.7-53.2-103.3-53.2c-70.07,0-126.87,56.8-126.87,126.87c0,70.08,56.8,126.88,126.87,126.88
						c38.08,0,72.25-16.78,95.5-43.35C357.23,385.4,368.85,357.88,369.92,327.67z"></path>
  <g>
    <path fill="#0096ff" d="M244.99,510c-103.04,0-186.87-83.834-186.87-186.88
						c0-34.88,9.673-68.904,27.973-98.393c0,0,0-0.001,0.001-0.001c19.213-30.956,46.76-55.469,79.662-70.891
						c23.261-10.906,48.147-16.798,73.968-17.512c1.644-0.049,3.374-0.074,5.267-0.074c12.461,0,24.904,1.234,36.984,3.667
						c46.534,9.336,87.436,35.859,115.163,74.681c22.728,31.785,34.742,69.313,34.742,108.522c0,1.992-0.04,4.113-0.126,6.675
						c-1.504,42.822-17.881,84.143-46.112,116.365C350.154,486.729,298.887,510,244.99,510z M103.087,235.273
						C86.754,261.593,78.12,291.97,78.12,323.12c0,92.018,74.857,166.88,166.87,166.88c48.128,0,93.909-20.78,125.604-57.014
						c25.209-28.773,39.829-65.662,41.172-103.878c0.078-2.316,0.114-4.225,0.114-5.988c0-35.013-10.725-68.518-31.015-96.893
						c-24.768-34.68-61.287-58.367-102.832-66.702c-10.791-2.174-21.905-3.275-33.043-3.275c-1.69,0-3.225,0.021-4.69,0.065
						c-23.08,0.638-45.296,5.896-66.055,15.629C144.857,185.719,120.252,207.618,103.087,235.273L103.087,235.273z"></path>
    <path fill="#0096ff" d="M243.12,460c-75.471,0-136.87-61.404-136.87-136.88
						c0-75.47,61.399-136.87,136.87-136.87c44.111,0,85.769,21.454,111.437,57.388C371.201,266.924,380,294.409,380,323.12
						c0,1.539-0.028,3.135-0.086,4.88c-1.111,31.378-13.104,61.641-33.771,85.239C320.14,442.955,282.588,460,243.12,460z
						 M243.12,206.25c-64.442,0-116.87,52.428-116.87,116.87c0,64.448,52.428,116.88,116.87,116.88
						c33.7,0,65.766-14.556,87.975-39.935c17.645-20.148,27.883-45.983,28.831-72.75c0.05-1.498,0.074-2.878,0.074-4.195
						c0-24.518-7.509-47.981-21.715-67.854c-0.001-0.001-0.002-0.002-0.003-0.003C316.361,224.572,280.786,206.25,243.12,206.25z"></path>
    <path fill="#0096ff" d="M290,400h-90c-5.523,0-10-4.478-10-10v-45c0-30.327,24.673-55,55-55
						c14.69,0,28.502,5.721,38.891,16.108C294.279,316.498,300,330.31,300,345v45C300,395.522,295.522,400,290,400z M210,380h70v-35
						c0-9.349-3.641-18.139-10.251-24.75c-6.61-6.609-15.4-10.25-24.749-10.25c-19.299,0-35,15.701-35,35V380z"></path>
    <path fill="#0096ff" d="M245 310c-22.056 0-40-17.944-40-40 0-22.056 17.944-40 40-40s40 17.944 40 40C285 292.056 267.056 310 245 310zM245 250c-11.028 0-20 8.972-20 20s8.972 20 20 20c11.028 0 20-8.972 20-20S256.028 250 245 250zM280 160c-5.522 0-10-4.477-10-10V30c0-5.523 4.478-10 10-10h50c5.522 0 10 4.477 10 10s-4.478 10-10 10h-40v110C290 155.523 285.522 160 280 160zM170 172.89c-5.523 0-10-4.477-10-10V100H50c-5.522 0-10-4.477-10-10s4.478-10 10-10h120c5.523 0 10 4.477 10 10v72.89C180 168.413 175.523 172.89 170 172.89zM350 190c-5.522 0-10-4.477-10-10V90c0-5.523 4.478-10 10-10h100c5.522 0 10 4.477 10 10s-4.478 10-10 10h-90v80C360 185.523 355.522 190 350 190zM94.59 240H30c-5.522 0-10-4.477-10-10v-40c0-5.523 4.478-10 10-10s10 4.477 10 10v30h54.59c5.522 0 10 4.477 10 10S100.112 240 94.59 240zM460 250h-58.83c-5.522 0-10-4.477-10-10s4.478-10 10-10H450v-20c0-5.523 4.478-10 10-10s10 4.477 10 10v30C470 245.523 465.522 250 460 250z"></path>
    <path fill="#0096ff" d="M30 200c-16.542 0-30-13.458-30-30s13.458-30 30-30 30 13.458 30 30S46.542 200 30 200zM30 160c-5.514 0-10 4.486-10 10s4.486 10 10 10 10-4.486 10-10S35.514 160 30 160zM30 120c-16.542 0-30-13.458-30-30s13.458-30 30-30 30 13.458 30 30S46.542 120 30 120zM30 80c-5.514 0-10 4.486-10 10s4.486 10 10 10 10-4.486 10-10S35.514 80 30 80zM350 60c-16.542 0-30-13.458-30-30s13.458-30 30-30 30 13.458 30 30S366.542 60 350 60zM350 20c-5.514 0-10 4.486-10 10s4.486 10 10 10 10-4.486 10-10S355.514 20 350 20zM240 156.32c-5.523 0-10-4.477-10-10V40h-40c-5.523 0-10-4.477-10-10s4.477-10 10-10h50c5.523 0 10 4.477 10 10v116.32C250 151.843 245.523 156.32 240 156.32z"></path>
    <path fill="#0096ff" d="M170 60c-16.542 0-30-13.458-30-30s13.458-30 30-30 30 13.458 30 30S186.542 60 170 60zM170 20c-5.514 0-10 4.486-10 10s4.486 10 10 10 10-4.486 10-10S175.514 20 170 20zM470 120c-16.542 0-30-13.458-30-30s13.458-30 30-30 30 13.458 30 30S486.542 120 470 120zM470 80c-5.514 0-10 4.486-10 10s4.486 10 10 10 10-4.486 10-10S475.514 80 470 80zM460 220c-16.542 0-30-13.458-30-30s13.458-30 30-30 30 13.458 30 30S476.542 220 460 220zM460 180c-5.514 0-10 4.486-10 10s4.486 10 10 10 10-4.486 10-10S465.514 180 460 180z"></path>
  </g>
</svg>
