<svg xmlns="http://www.w3.org/2000/svg" xml:space="preserve" id="skull-idea" x="0" y="0" version="1.1" viewBox="0 0 512 512">
  <g id="_x30_1_00000070821487132044404550000002157189303703320232_">
    <g id="outlie">
      <path d="M348.73 372.24c-.68 0-1.35-.17-1.94-.5-.91-.51-22.31-12.62-19.74-31.08 1.12-8.08 5.61-13.14 12.01-13.54 5.56-.34 11.07 3.06 14.89 8.71 1.97-3.3 4.77-6.54 8.51-7.79 2.57-.86 6.62-1.13 11.31 2.48 5.32 4.1 6.98 10.87 4.56 18.58-3.38 10.73-14.83 22.48-29.41 23.15-.07-.01-.13-.01-.19-.01m-8.9-37.15c-.09 0-.19 0-.28.01-3.34.21-4.32 4.73-4.59 6.66-1.56 11.21 11.09 20.08 14.74 22.4 10.04-1.04 18.48-9.52 20.98-17.47.8-2.54 1.63-7.2-1.8-9.84-2.3-1.77-3.5-1.36-3.9-1.23-3.02 1.01-6.02 7.22-7.09 11.09a4.005 4.005 0 0 1-3.86 2.93h-.01a4.01 4.01 0 0 1-3.85-2.96c-1.97-7.35-6.74-11.59-10.34-11.59" style="fill:#2d2d2d"></path>
      <path d="M253.96 416.65c-4.64 0-11.64-.66-16.12-5.34-3.02-3.16-4.32-7.47-3.88-12.82.71-8.46 6.79-38.44 13.55-66.84 13.36-56.04 18.12-60.27 19.68-61.66 1.91-1.7 6.39-5.68 81.9-7.21 36.23-.74 76.83-.51 85.18.47 7.69.9 13.41 1.91 17.08 6.7 4.01 5.23 4.53 13.78 1.92 31.53-2.37 16.1-9.23 42.58-16.68 64.41-14.79 43.32-23.54 46.05-26.41 46.95-14.36 4.49-138.21 3.82-152.32 3.73-.27.01-.64.01-1.09.03-.76.01-1.72.05-2.81.05m18.47-140.6c-6.56 7.58-28.93 104.32-30.5 123.1-.25 3.01.3 5.18 1.69 6.63 3.04 3.18 9.91 2.92 12.85 2.81.59-.02 1.07-.04 1.44-.04 54.79.36 139.92-.25 149.89-3.36 2.88-.9 10.58-10.73 21.23-41.9 7.31-21.42 14.03-47.32 16.33-62.99 2.14-14.53 2.03-22.39-.35-25.5-1.62-2.11-4.91-2.83-11.66-3.62-16.68-1.96-150.22-.73-160.92 4.87" style="fill:#2d2d2d"></path>
      <path d="M251.14 416.55a3.99 3.99 0 0 1-3.94-4.7c.06-.32 5.66-31.89 12.38-63.44 14.05-65.97 19.05-67.56 22.36-68.61 10.04-3.19 152.48-4.22 168.69-4.32h.03a3.999 3.999 0 0 1 .03 8c-59.46.39-155.78 1.77-165.87 3.84-5.87 6.8-19.64 68.9-29.73 125.94a4.04 4.04 0 0 1-3.95 3.29m33.9-129.49" style="fill:#2d2d2d"></path>
      <path d="M245.41 443.84c-27.99 0-51.21-.47-60.26-1.62-22.6-2.87-27.98-11-29.17-15.59-1.26-4.83.83-9.81 5.59-13.31 8.81-6.5 66.01-6.31 83.33-6.1a4 4 0 0 1 3.95 4.05c-.03 2.21-1.84 3.99-4.05 3.95-34.09-.41-73.79 1.2-78.49 4.54-.97.72-3.17 2.63-2.59 4.86.85 3.25 7.23 7.73 22.44 9.66 26.79 3.4 194.99.4 210.08-2.61 8.15-1.63 12.81-6.73 13.8-11.05.74-3.22-.46-6.14-3.48-8.43a3.99 3.99 0 0 1-.76-5.6 3.99 3.99 0 0 1 5.6-.76c5.54 4.21 7.89 10.26 6.43 16.59-1.89 8.21-9.94 15.08-20.03 17.1-10.89 2.18-92.51 4.32-152.39 4.32" style="fill:#2d2d2d"></path>
      <path d="M159.1 430.75c-1.86 0-6-.43-9.65-3.79-4.1-3.78-6.09-9.85-5.9-18.05.19-8.26 3.65-15.53 10.01-21.01 9.31-8.03 23.94-11.48 40.13-9.45 19.9 2.49 25.96 12.94 27.64 17.32 2.21 5.76 1.42 11.83-2.07 15.85a3.994 3.994 0 0 1-5.64.4 3.994 3.994 0 0 1-.4-5.64c1.52-1.76 1.77-4.8.64-7.75-1.16-3.03-5.55-10.3-21.16-12.25-13.74-1.72-26.42 1.11-33.91 7.57-4.66 4.02-7.1 9.11-7.24 15.14-.13 5.64.99 9.75 3.23 11.9 1.99 1.9 4.39 1.76 4.49 1.75 2.2-.23 4.13 1.36 4.37 3.56.23 2.2-1.39 4.17-3.59 4.4-.13.02-.46.05-.95.05" style="fill:#2d2d2d"></path>
      <path d="M203.37 415.69c-.85 0-1.7-.27-2.43-.82a4.01 4.01 0 0 1-.75-5.61c.98-1.28 1.38-2.46 1.23-3.6-.26-1.9-1.99-3.59-2.64-4.08-1.75-1.33-2.12-3.83-.81-5.59s3.78-2.15 5.55-.85c.51.37 5.01 3.8 5.81 9.34.33 2.3.12 5.84-2.79 9.64a3.97 3.97 0 0 1-3.17 1.57M190.1 416.31a4.004 4.004 0 0 1-3.21-6.39c.79-1.07.69-1.71.65-1.96-.21-1.3-1.7-2.73-2.38-3.21-1.79-1.27-2.25-3.75-1-5.56s3.71-2.27 5.52-1.04c.5.34 4.89 3.46 5.74 8.45.47 2.78-.26 5.58-2.11 8.07a3.94 3.94 0 0 1-3.21 1.64M175.37 417.64c-.54 0-1.09-.11-1.62-.35a3.997 3.997 0 0 1-2.03-5.28c.64-1.44.57-2.14.49-2.27-.2-.34-1.23-.69-1.6-.73a4 4 0 0 1-3.56-4.4c.23-2.2 2.19-3.8 4.4-3.56.54.06 5.36.68 7.68 4.69 1.06 1.84 1.91 4.99-.11 9.52a3.97 3.97 0 0 1-3.65 2.38M281.3 492.82c-14.05 0-27.88-.28-40.89-.95-8.14-.41-15.65-.78-22.58-1.12-29.62-1.44-49.18-2.4-61.42-4.39-11.22-1.82-19.25-4.77-21.96-13.22-2.93-9.13.43-23.57 7.82-33.6 5.85-7.93 13.69-12.23 22-12.16a4 4 0 1 1-.08 8c-7.31-.12-12.45 4.8-15.48 8.91-6.3 8.55-8.52 20.55-6.64 26.4 2.73 8.48 21.23 9.38 76.16 12.06 6.93.34 14.45.7 22.6 1.12 77.99 3.97 184.14-5.88 190.66-8.15 3.39-1.36 5.29-10.48-.06-24.05-4.99-12.67-22.9-18.74-23.08-18.8a4.01 4.01 0 0 1-2.54-5.05c.69-2.1 2.95-3.23 5.05-2.54.88.29 21.64 7.28 28.02 23.47 6.54 16.6 4.71 30.76-4.45 34.43-6.16 2.45-82.45 9.64-153.13 9.64M235.39 353.75c-.38 0-.76-.01-1.15-.02-4.44-.18-7.52-1.74-9.58-3.69-2.79 2.31-6.97 4.1-12.75 3.62-8.9-.74-12.87-9-14.22-15.75-4.39.08-11.88-.36-20.06-3.35-11.71-4.27-27.11-14.7-33.96-40.16-7.08-26.31-2.09-55.53 13.35-78.18 13.43-19.71 33.35-31.96 56.11-34.51 27.88-3.12 53.35 3.93 71.72 19.85 18.05 15.65 28.04 38.61 28.88 66.39a4 4 0 0 1-3.88 4.12c-2.2.1-4.05-1.67-4.12-3.88-.78-25.49-9.81-46.45-26.13-60.59-16.66-14.45-39.95-20.82-65.58-17.95-20.4 2.29-38.29 13.32-50.39 31.07-13.93 20.44-18.62 47.87-12.23 71.6 11.29 41.99 47.68 37.61 49.22 37.4 1.1-.15 2.22.17 3.08.88s1.39 1.74 1.45 2.85c.01.11.93 11.7 7.42 12.24 6.72.56 8.58-3.62 8.77-4.1.61-1.74 2.33-2.8 4.16-2.61 1.81.18 3.25 1.59 3.53 3.38.16.77 1.01 3.21 5.52 3.39 6.78.27 11.31-2.92 11.35-2.95 1.78-1.28 4.28-.9 5.58.88 1.3 1.77.94 4.25-.83 5.56-.24.17-6.18 4.51-15.26 4.51" style="fill:#2d2d2d"></path>
      <path d="M246.25 359.12c-.48 0-.97-.09-1.44-.27l-14.14-5.48c-5.68 2.97-23.63 10.22-49.1.01-17.02-6.82-29.84-16.39-38.1-28.46-10.06-14.69-13.43-33.12-10.01-54.79 7.02-44.53 41.18-82.47 71.92-100.32 31.27-18.16 53.6-3.13 79.49 27 27.41 31.91 34.29 67.3 34.57 68.79a4 4 0 0 1-7.86 1.48c-.06-.34-6.82-34.83-32.78-65.05-28.11-32.72-45.62-39.1-69.4-25.29-28.16 16.35-61.46 52.94-68.03 94.65-5.63 35.75 8.9 60.84 43.19 74.58 26.59 10.65 43.41-.22 43.58-.33a4 4 0 0 1 3.66-.4l15.92 6.17c2.06.8 3.08 3.12 2.28 5.18a4.07 4.07 0 0 1-3.75 2.53" style="fill:#2d2d2d"></path>
      <path d="M184.46 361.25c-15.29 0-37.72-4.5-62.04-24.48-29.89-24.54-31.39-40.7-32.59-53.69-.53-5.69-.94-10.18-3.72-14.63-3.94-6.34-6.91-9.25-8.88-11.17-4.87-4.77-4.13-7.45.4-12.63 1.01-1.16 2.12-2.28 3.29-3.46 6.97-7.05 10.87-11.82 3.71-20.63-10.04-12.36-33.92-10.09-34.16-10.06-1.45.15-2.86-.5-3.69-1.7a4 4 0 0 1-.31-4.05c.39-.79 9.77-19.62 30.96-39.12 19.54-17.99 53.23-39.88 102.74-41.99 44.64-1.9 83.28 12.56 111.78 41.81 25.42 26.1 40.65 61.85 42.87 100.66a3.99 3.99 0 0 1-3.77 4.22c-2.2.14-4.1-1.56-4.22-3.77-4.01-69.99-55.56-138.83-146.33-134.94-46.94 2-78.89 22.67-97.42 39.66-13.21 12.11-21.7 24.13-26.01 31.04 9.28.24 24.97 2.37 33.75 13.18 12.05 14.83 1.86 25.14-4.23 31.3-1.08 1.09-2.1 2.13-2.96 3.1-.25.29-.73.83-1.15 1.34.11.11.21.21.32.31 2.11 2.06 5.63 5.51 10.08 12.67 3.77 6.06 4.31 11.92 4.89 18.12 1.12 12.11 2.4 25.83 29.7 48.25 39.64 32.54 73.01 20.67 74.41 20.15 2.07-.77 4.37.28 5.15 2.34s-.26 4.36-2.32 5.14c-.67.26-8.27 3.03-20.25 3.03" style="fill:#2d2d2d"></path>
      <path d="M372.65 270.33c-.63 0-1.26-.15-1.86-.46-8.26-4.34-44.04-21.44-44.4-21.61a4.003 4.003 0 0 1-1.89-5.33 4.003 4.003 0 0 1 5.33-1.89c1.48.71 36.28 17.34 44.67 21.75a3.994 3.994 0 0 1 1.68 5.4 3.96 3.96 0 0 1-3.53 2.14M66.4 428.55a4.5 4.5 0 0 1-1.93-.45c-4.4-2.1-33.98-33.44-35.69-109.4C27 239.21 53.86 207 55.01 205.67a3.995 3.995 0 0 1 5.64-.43 3.996 3.996 0 0 1 .43 5.64c-.25.3-26 31.57-24.29 107.64.84 37.36 8.74 62.66 15.23 77.3 3.79 8.56 7.61 14.73 10.59 18.83 5.33-32.81 51.88-83.87 54.09-86.27a3.99 3.99 0 0 1 5.65-.24 3.99 3.99 0 0 1 .24 5.65c-15.97 17.4-56.48 67.48-52.19 89.87.29 1.54-.28 3.08-1.51 4.03-.74.57-1.6.86-2.49.86M54.97 198.49c-5.5 0-13.08-2.09-15.79-10.22-1.89-5.68-1.12-10.92 2.18-14.77 5.52-6.44 17.46-8.16 35.48-5.1 2.18.37 3.64 2.44 3.27 4.61-.37 2.18-2.44 3.65-4.61 3.27-20.48-3.48-26.45.53-28.07 2.42-1.79 2.09-1.35 4.98-.66 7.03 1.96 5.88 9.82 4.65 10.15 4.59 2.17-.36 4.24 1.1 4.61 3.27a3.99 3.99 0 0 1-3.24 4.61c-.94.18-2.08.29-3.32.29" style="fill:#2d2d2d"></path>
      <path d="M66.08 424.08a3.99 3.99 0 0 1-3.88-3.05c-12.72-52.08 38.65-105.19 40.85-107.42a3.987 3.987 0 0 1 5.65-.05c1.58 1.55 1.6 4.08.06 5.66-.51.52-50.45 52.18-38.79 99.92a3.993 3.993 0 0 1-3.89 4.94" style="fill:#2d2d2d"></path>
      <path d="M132.56 482.29c-.76 0-1.58-.06-2.47-.2-6.8-1.07-9.45-4.52-12.01-7.85-1.43-1.87-2.91-3.79-5.42-5.86-1.11-.92-1.57-.99-1.58-.99-.29.05-1.26.68-1.96 1.14-3.13 2.02-7.86 5.08-17.29 4.3-13.53-1.13-15.87-6.57-17.52-13.56-.43-1.81-.87-3.69-1.75-5.54-2.65-5.53-11.53-9.12-14.73-10.04-1.8-.52-3.01-2.22-2.89-4.09s1.52-3.42 3.37-3.71c19.24-3.02 33.74-43.99 38.5-57.45 10.67-30.16 35.77-40.51 36.83-40.93a4.003 4.003 0 0 1 2.98 7.43c-.23.09-22.85 9.54-32.27 36.18-8.12 22.95-19.15 49.04-34.97 58.9 3.97 2.29 8.18 5.64 10.39 10.26 1.26 2.63 1.82 5.03 2.32 7.16 1.15 4.87 1.58 6.69 10.39 7.42 6.72.56 9.67-1.35 12.28-3.04 2.95-1.91 7-4.53 12.97.39 3.21 2.65 5.14 5.15 6.68 7.16 2.24 2.92 3.26 4.25 6.91 4.82 1.61.25 2.36.01 2.55-.18.33-.31.42-1.34.38-1.61a4 4 0 0 1 3.51-4.44 4 4 0 0 1 4.44 3.51c.06.52.5 5.15-2.79 8.31-1.24 1.21-3.4 2.51-6.85 2.51M259.2 306c-.5 0-1-.09-1.49-.29-.7-.28-17.14-7.19-19.32-32.28-1.08-12.39 4.05-23.67 13.71-30.17 8.49-5.71 19.09-6.54 27.66-2.16 17.42 8.9 21.2 24.71 21.36 25.38.49 2.15-.86 4.3-3.01 4.79s-4.3-.86-4.79-3.01c-.12-.5-3.22-12.9-17.2-20.04-6.07-3.1-13.38-2.48-19.55 1.67-7.21 4.85-11.03 13.4-10.21 22.84 1.74 19.97 13.86 25.35 14.38 25.57 2.02.86 2.99 3.19 2.15 5.22a4 4 0 0 1-3.69 2.48" style="fill:#2d2d2d"></path>
      <path d="M198.4 317.56c-1.55 0-3.12-.1-4.72-.3-8.34-1.06-15-5.74-19.25-13.54-6.17-11.3-5.82-26.62-1.93-35.08 1.07-3.35 10.44-30.25 34.96-30.36h.23c14.06 0 21.65 5.99 25.54 11.04 6.09 7.9 7.64 18.97 4.37 31.19-6.23 23.27-21.01 37.05-39.2 37.05m9.29-71.28h-.19c-19.65.09-27.35 24.72-27.43 24.97-.06.19-.13.39-.22.57-3.09 6.48-3.19 19.3 1.6 28.07 3.02 5.53 7.47 8.71 13.24 9.44 1.34.17 2.63.25 3.87.25 21.24 0 29.28-23.56 31.31-31.14 2.57-9.61 1.49-18.44-2.98-24.23-4-5.19-10.64-7.93-19.2-7.93m-31.45 23.81" style="fill:#2d2d2d"></path>
      <path d="M227.14 326.27c-3.44 0-6.41-1.88-7.95-5.02-1.6-3.26-1.36-7.21.59-9.91.9-1.46 4.43-6.61 9.33-6.9 1.49-.09 4.37.24 6.8 3.43 2.74 3.58 3.21 7.88 1.27 11.79-1.94 3.95-5.98 6.61-10.04 6.61m-.87-10.25c-.13.2-.25 1.03.13 1.75.26.5.52.5.75.5.87 0 2.22-.82 2.88-2.15.56-1.14.41-2.24-.46-3.38a2 2 0 0 0-.18-.21c-.75.4-2.06 1.81-2.85 3.12-.09.11-.18.25-.27.37M249.5 327.04c-1.25 0-2.63-.24-3.98-.94-2.99-1.53-4.82-4.61-5.44-9.15-.93-6.79 2.82-10.05 6.3-10.78 5.36-1.11 11.61 2.74 13.13 8.09a4.005 4.005 0 0 1-4.05 5.09c.3.29.57.63.78 1.02 1.04 1.95.28 4.39-1.67 5.43-.33.17-2.44 1.24-5.07 1.24m-1.45-13.05c-.07.19-.2.75-.04 1.88.29 2.13.88 2.96 1.14 3.11.31.16 1.18-.01 1.7-.26.66-.35 1.37-.5 2.05-.47-.5-.48-.89-1.09-1.09-1.81-.21-.74-1.02-1.57-2.03-2.05-.82-.41-1.47-.44-1.73-.4M471.03 245.8H327.54c-1.89 0-3.52-1.32-3.91-3.17-1.16-5.45-2.61-10.88-4.33-16.13a3.994 3.994 0 0 1 3.8-5.24h50.58v-65.19h-60.54v38.38a4.003 4.003 0 0 1-7.44 2.05c-4.68-7.85-10.09-15.19-16.08-21.82a4.03 4.03 0 0 1-1.03-2.68v-68.1c0-46.72 38.01-84.72 84.72-84.72h25.26c46.72 0 84.72 38.01 84.72 84.72v129.64c.01 6.76-5.49 12.26-12.26 12.26m-140.28-8h140.28c2.36 0 4.27-1.92 4.27-4.27V103.89c0-42.3-34.42-76.72-76.72-76.72h-25.26c-42.3 0-76.72 34.42-76.72 76.72v66.57c3 3.39 5.85 6.95 8.54 10.66v-29.05c0-2.21 1.79-4 4-4h68.54c2.21 0 4 1.79 4 4v73.19c0 2.21-1.79 4-4 4h-49.16c.81 2.82 1.56 5.68 2.23 8.54m132.01-8.54h-68.54c-2.21 0-4-1.79-4-4v-73.19c0-2.21 1.79-4 4-4h68.54c2.21 0 4 1.79 4 4v73.19c0 2.21-1.79 4-4 4m-64.54-8h60.54v-65.19h-60.54zm64.54-81.73h-68.54c-2.21 0-4-1.79-4-4V39.71c0-2.21 1.79-4 4-4h4.36c37.59 0 68.18 30.58 68.18 68.18v31.64c0 2.21-1.79 4-4 4m-64.54-8h60.54v-27.64c0-33.18-27-60.18-60.18-60.18h-.36zm-20.54 8h-68.54c-2.21 0-4-1.79-4-4v-31.64c0-37.59 30.58-68.18 68.18-68.18h4.36c2.21 0 4 1.79 4 4v95.81c0 2.22-1.79 4.01-4 4.01m-64.54-8h60.54V43.71h-.36c-33.18 0-60.18 27-60.18 60.18z" style="fill:#2d2d2d"></path>
    </g>
    <g id="color_00000167385220001620043370000018224405199653183110_">
      <path d="M44.94 186.35c-.84-2.53-1.35-6.13 1.03-8.9 2.12-2.48 8.28-6.06 25.88-3.67-6.58 6.81-11.68 13.27-15.43 18.56-2.42.22-9.39.3-11.48-5.99" style="fill:#ffc166"></path>
      <path d="M34.85 318.56c-1.73-76.99 24.5-108.64 24.76-108.94.27-.31.42-.68.48-1.06 8.24.59 19.67 2.92 26.04 10.77 8.62 10.61 2.57 16.73-3.83 23.21-1.15 1.16-2.23 2.26-3.21 3.37-3.94 4.5-4.5 6.07-.51 9.98 1.91 1.87 5.11 5 9.17 11.53 3.01 4.85 3.47 9.77 4 15.48.82 8.79 1.78 19.08 12.15 32.62-2.59 2.73-13.98 15.12-24.31 32.74-15.05 25.66-20.48 50.25-15.76 71.2-8.34-9.72-27.64-41.29-28.98-100.9" style="fill:#c9c9c9"></path>
      <path d="M91.74 282.9c-.53-5.7-.99-10.63-4-15.48-2.04-3.29-3.87-5.72-5.42-7.55-3.34 3.14-5.56 7.35-6.76 11.78-.76 2.83-1.14 5.74-1.19 8.67-.05 2.87-.01 6.06.99 8.78 1.96 5.38 7.32 9.82 5.02 16.08-2.05 5.58-8.04 8.45-10.34 13.85-.75 1.76-1.57 3.41-1.86 5.33-.29 1.93-.17 3.9-.03 5.84.27 3.62.81 7.6-.6 11.06-2.14 5.23-6.41 9.26-8.4 14.54-1.15 3.06-1.8 6.7-1.57 9.97.24 3.42 1.48 6.69 2.51 9.93 1.03 3.22 1.96 6.55 1.88 9.96-.07 3.02-.83 6.08-1.71 8.95-1.37 4.52-3.71 9.01-4.08 13.77 2.91 5.04 5.59 8.71 7.62 11.08-4.72-20.95.71-45.53 15.76-71.2 10.33-17.62 21.72-30.02 24.31-32.74-10.34-13.54-11.31-23.83-12.13-32.62" style="fill:#eaeaea"></path>
      <path d="M66.35 407.2c-1.83-41.34 34.1-81.91 40.16-88.43 3.02 3.57 6.7 7.35 11.18 11.38-4.72 5.19-41.64 46.48-51.34 77.05" style="fill:#eaeaea"></path>
      <path d="M95.86 282.52c-.55-5.97-1.08-11.6-4.6-17.28-4.33-6.96-7.75-10.31-9.79-12.31-.58-.57-1.22-1.2-1.46-1.53.3-.61 1.56-2.05 2.19-2.77.89-1.02 1.93-2.07 3.04-3.19 6.36-6.43 15.06-15.24 4.1-28.72-9.49-11.68-27.73-12.66-35.67-12.48 3.55-6.1 12.6-20.13 28-34.27 18.78-17.25 51.17-38.24 98.76-40.27 91.48-3.89 143.67 65.03 148.25 135.53-3.93.13-7.67.26-11.22.41-.75-3.76-8-37.22-34.08-67.57-14.89-17.33-26.57-27.03-37.87-31.43-12.59-4.9-25.04-3.37-39.18 4.85-15.23 8.84-30.99 22.86-43.23 38.45-14.91 18.98-24.5 39.9-27.75 60.5-6.13 38.92 9.65 66.22 46.93 81.15a76 76 0 0 0 9.46 3.11c-13.57 1.36-38.36-.35-65.48-22.61-27.92-22.94-29.24-37.09-30.4-49.57" style="fill:#5e5e5e"></path>
      <path d="M251.72 320.44c-.02.01-2.02 1-3.46.25-1.38-.72-1.94-2.88-2.17-4.56-.33-2.39.19-3.74 1.53-4.02 1.91-.4 4.9 1.1 5.87 3.3-.41 1.6-.81 3.22-1.22 4.85-.19.03-.37.09-.55.18M257.9 298.93c-3.91-2.52-12.03-9.65-13.46-26.03-.88-10.16 3.25-19.36 11.05-24.61 6.76-4.55 14.8-5.22 21.51-1.79 12.57 6.43 16.88 17.18 17.93 20.39-15.49 1.16-24.35 2.67-26.45 4.54-2.69 2.39-6.51 13.15-10.58 27.5" style="fill:#383838"></path>
      <path d="M299.15 266.59c-.6-2.28-4.75-15.85-20.27-23.78-7.95-4.06-17.79-3.28-25.7 2.04-9.07 6.11-13.88 16.72-12.86 28.4 1.7 19.51 12.24 27.41 16.43 29.8-.66 2.39-1.32 4.86-1.98 7.4-2.23-1.91-5.29-2.96-7.99-2.4-2.8.58-5.53 3.16-4.78 8.63.53 3.88 2.01 6.47 4.4 7.69 1.06.54 2.14.73 3.13.73.56 0 1.1-.06 1.58-.16-1.59 6.53-3.15 13.21-4.63 19.76-1.51.92-5.93 3.2-11.99 2.95-6.39-.26-7.26-4.51-7.34-4.97-.13-.95-.89-1.68-1.84-1.77-.96-.1-1.84.47-2.16 1.37-.02.06-2.22 6.02-10.73 5.31-8.27-.69-9.18-13.92-9.19-14.05a2.065 2.065 0 0 0-2.35-1.93c-1.61.22-39.59 4.9-51.35-38.81-6.62-24.62-1.95-51.98 12.5-73.19 12.42-18.22 30.8-29.55 51.77-31.9 26.17-2.93 49.99 3.6 67.06 18.41 16.29 14.13 25.48 34.84 26.69 59.96q-4.44.255-8.4.51" style="fill:#fff"></path>
      <path d="m244.78 352.33-3.21-1.24c1.42-.34 2.68-.76 3.74-1.19-.17.81-.35 1.62-.53 2.43" style="fill:#2d2d2d"></path>
      <path d="M183.82 347.75c-35.24-14.12-50.17-39.91-44.38-76.67.99-6.3 2.6-12.47 4.68-18.49-2.58 13.67-2.19 27.87 1.42 41.3 11.09 41.22 44.97 42.41 53.8 42 .69 4.58 3.3 15.05 12.73 15.84 6.25.52 10.35-1.87 12.71-4.45.38.51.84 1.02 1.37 1.5-6.18 2.72-21.46 7.33-42.33-1.03M184.12 193.29c8.04-7.44 16.36-13.63 24.29-18.23 24.18-14.04 42.81-7.66 70.7 24.4-17.52-13.03-40.62-18.65-65.76-15.84a74.1 74.1 0 0 0-29.23 9.67" style="fill:#383838"></path>
      <path d="M311.69 265.89c-.14-2.96-.38-5.87-.74-8.71 1.28 4.2 2.01 7.23 2.32 8.64-.53.02-1.06.05-1.58.07" style="fill:#2d2d2d"></path>
      <path d="M135.21 475.41c-1 .95-2.83.89-4.18.68-4.41-.7-5.81-2.53-8.14-5.56-1.49-1.94-3.34-4.34-6.38-6.85-4.89-4.03-7.84-2.11-10.7-.26-2.72 1.76-6.11 3.96-13.49 3.34-10.22-.85-10.89-3.71-12.12-8.91-.48-2.03-1.02-4.33-2.19-6.76-2.58-5.4-8.36-8.98-12.79-11.04 16.95-7.71 28.73-35.42 37.29-59.6 8.61-24.34 27.9-34.74 32.41-36.89 19.47 12.65 36.98 15.77 49.51 15.77 10.25 0 17.16-2.08 19.09-2.74 14.44.94 24.03-3.67 26.99-5.35l13.36 5.18c-4.38 20.23-7.6 37.38-8 42.22-.36 4.3.53 7.8 2.61 10.46-4.91-.02-11.97-.01-19.85.11 2.26-3.44 2.62-8.19.87-12.75-1.55-4.05-7.21-13.74-26.07-16.1-15.64-1.96-29.72 1.32-38.63 9-5.93 5.11-9.16 11.89-9.34 19.59-.18 7.62 1.6 13.2 5.27 16.58 3.1 2.85 6.64 3.25 8.23 3.27.19.31.4.63.63.95-5.99 1.21-11.38 4.92-15.81 10.94-6.86 9.31-10.16 23.08-7.61 31.56.07.68-.02 2.28-.96 3.16" style="fill:#5e5e5e"></path>
      <path d="M251.11 414.61h.02c1.01.07 1.98.1 2.85.1 1.05 0 1.98-.04 2.71-.06.48-.02.88-.03 1.18-.03 5.48.04 131.6.8 150.59-3.35 3.07 2.67 4.31 6.11 3.47 9.78-.56 2.43-1.93 4.7-3.88 6.65l-.02.02c-2.81 2.8-6.82 4.92-11.4 5.84-15.14 3.03-183.85 6.04-210.7 2.63-20.32-2.58-23.56-9.14-24.07-11.09-.62-2.38.59-4.89 3.32-6.9 5.7-4.2 51.51-5.24 79.3-4.92 2.19.81 4.52 1.18 6.63 1.33" style="fill:#bdfff4"></path>
      <path d="M214.67 407.65c-.41.47-.56 1.07-.48 1.65-2.39.05-4.82.11-7.27.19.55-1.55.73-3.13.5-4.72-.7-4.84-4.86-7.93-5.03-8.06-.92-.67-2.21-.47-2.88.45-.68.92-.48 2.21.43 2.89.03.02 2.96 2.23 3.39 5.34.2 1.42-.15 2.83-1.06 4.27-2.98.11-5.95.25-8.85.41.23-1.02.27-2.06.09-3.11-.73-4.28-4.75-7.06-4.92-7.18-.94-.64-2.22-.4-2.86.54s-.4 2.22.53 2.87c.77.53 2.83 2.37 3.18 4.47.15.89-.03 1.77-.52 2.67-3.79.25-7.4.56-10.68.93.25-1.7-.01-3.22-.78-4.55-1.84-3.18-5.77-3.68-6.21-3.73a2.07 2.07 0 0 0-2.27 1.83c-.13 1.13.69 2.15 1.82 2.28.63.08 2.42.53 3.08 1.7.48.84.32 1.99-.02 3.02-5.38.78-9.41 1.78-11.15 3.07-3.55 2.62-5.39 6.14-5.13 9.66a8.25 8.25 0 0 1-4.08-2.08c-2.69-2.52-4.03-7.15-3.89-13.4.15-6.5 2.89-12.22 7.91-16.55 8.02-6.91 20.92-9.84 35.41-8.03 16.64 2.08 21.43 10.12 22.72 13.48 1.39 3.6 1 7.4-.98 9.69" style="fill:#fff"></path>
      <path d="M433.21 450.98c5.78 14.67 3.77 24.64-1.06 26.57-5.65 2.26-112.49 12.29-191.44 8.27-8.15-.41-15.66-.78-22.6-1.12-57.43-2.8-74.76-3.64-77.9-13.4-2.02-6.28.06-18.82 6.93-28.14 3.21-4.36 8.65-9.5 16.44-9.68 4.03 2.78 10.72 5.42 21.81 6.83 9.04 1.15 32.28 1.62 60.25 1.62 59.68 0 140.92-2.13 151.78-4.3 4.93-.99 9.31-3.2 12.62-6.16 4.14 1.58 18.59 7.86 23.17 19.51" style="fill:#fff78f"></path>
      <path d="M447.27 300.59c-2.32 15.77-9.07 41.82-16.42 63.33-8.64 25.3-17.04 41.42-22.48 43.12-10.97 3.43-103.22 3.76-150.47 3.45-.33 0-.8.01-1.36.04-.77.03-1.8.07-2.95.06 1.4-7.76 6.14-33.69 11.69-59.84 12.22-57.57 17.3-64.45 18.49-65.16 7.64-2.43 119.85-3.71 164.98-4.02.26 4.43-.24 10.58-1.48 19.02" style="fill:#bdfff4"></path>
      <path d="M393.41 268.32c19.42 0 34.89.33 40.16.95 6.39.75 10.75 1.46 12.97 4.36.73.96 1.28 2.21 1.66 3.79-20.65.15-156.31 1.23-165.68 4.21-2.35.75-7.24 2.3-21.06 67.17-5.77 27.09-10.71 54.19-12.02 61.47-2.69-.4-5.42-1.28-7.22-3.16-1.79-1.87-2.52-4.53-2.22-8.13 1.4-16.77 24.15-118.19 31.21-124.47 2.35-1.93 17.84-3.38 38.45-4.39.04 0 .08.01.12.01.07 0 .13-.02.19-.03 25.13-1.21 57.75-1.78 83.44-1.78" style="fill:#bdfff4"></path>
      <path d="M349.13 264.7c-5.74.12-11.17.25-16.31.4-.36-5.68-1-11.3-1.92-16.82 7.17 3.43 23.21 11.14 33.41 16.17-5 .06-10.07.14-15.18.25M477.23 233.53c0 3.42-2.78 6.2-6.2 6.2H329.24c-.93-4.2-2.01-8.34-3.26-12.41h51.7c1.14 0 2.07-.93 2.07-2.07v-73.19c0-1.14-.93-2.07-2.07-2.07h-68.54c-1.14 0-2.07.93-2.07 2.07v35.16c-3.76-5.64-7.9-11-12.41-16.04v-67.3c0-43.37 35.28-78.65 78.65-78.65h25.26c43.37 0 78.65 35.28 78.65 78.65v129.65z" style="fill:#ffc166"></path>
      <path d="M377.68 37.65h-4.36c-36.53 0-66.25 29.72-66.25 66.25v31.64c0 1.14.93 2.07 2.07 2.07h68.54c1.14 0 2.07-.93 2.07-2.07V39.71c0-1.14-.93-2.06-2.07-2.06M398.58 37.65h-4.36c-1.14 0-2.07.93-2.07 2.07v95.81c0 1.14.93 2.07 2.07 2.07h68.54c1.14 0 2.07-.93 2.07-2.07v-31.64c0-36.53-29.72-66.24-66.25-66.24M462.76 150h-68.54c-1.14 0-2.07.93-2.07 2.07v73.19c0 1.14.93 2.07 2.07 2.07h68.54c1.14 0 2.07-.93 2.07-2.07v-73.19c0-1.14-.93-2.07-2.07-2.07" style="fill:#2d2d2d"></path>
      <path d="M460.69 133.46h-64.4V41.78h2.29c34.25 0 62.11 27.86 62.11 62.11zm0 89.73h-64.4v-69.05h64.4zm-85.08-89.73h-64.4v-29.57c0-34.25 27.86-62.11 62.11-62.11h2.29zm-64.4 60.33v-39.65h64.4v69.05h-50.96c-3.48-10.34-7.98-20.2-13.44-29.4" style="fill:#97e9ff"></path>
      <path d="M311.21 190.26v-23.52c.5-.51.99-1.02 1.49-1.52 3.66-3.71 7.35-7.4 11.05-11.09h30.69c-14.44 12.01-28.98 23.91-43.23 36.13m64.4-15.1v-10.83c-.44.37-.87.74-1.31 1.1-17.66 14.74-35.53 29.24-52.89 44.34-.48.41-.95.83-1.43 1.25 1.54 3.56 2.95 7.19 4.22 10.89 16.84-15.9 34-31.47 51.41-46.75m-28.62-87.49c9.73-9.01 19.12-18.71 28.62-28.37V41.78h-.63c-1.77 1.62-3.5 3.25-5.19 4.84-10.9 10.28-21.81 20.46-32.9 30.54-8.51 7.73-17.02 15.44-25.56 23.13-.07 1.19-.11 2.39-.11 3.6v17.7c11.79-11.44 23.71-22.75 35.77-33.92m-2.14 45.79h30.76v-29.11c-10.36 9.6-20.61 19.31-30.76 29.11m55.01 20.68h-3.57v3.08c1.19-1.02 2.38-2.06 3.57-3.08m60.83 31.39V175.5a1425 1425 0 0 0-62.28 47.7h15.02c15.36-13.1 30.86-26.02 47.26-37.67m-23.75-63.62c7.69-6.76 15.52-13.42 23.71-19.61-.09-3.6-.48-7.12-1.16-10.54-9.09 7.55-18.07 15.25-26.99 23-7.12 6.19-14.19 12.45-21.27 18.69h12.49c4.41-3.84 8.83-7.68 13.22-11.54m14.32-50.85a62.6 62.6 0 0 0-17.42-18.24c-6.61 5.31-13.07 10.82-19.43 16.44-6.07 5.36-12.1 10.77-18.12 16.21v32.9c18.21-15.92 36.33-31.92 54.97-47.31" style="fill:#fff"></path>
      <path d="M372.59 332.04c-3.22-2.48-6.43-3.21-9.52-2.18-4.33 1.45-7.27 6.09-9.03 9.9-3.68-7.44-9.83-11.02-14.86-10.71-5.41.34-9.23 4.78-10.22 11.88-2.38 17.16 17.9 28.64 18.77 29.12.31.17.65.26 1 .26h.09c13.7-.62 24.47-11.7 27.66-21.8 2.17-6.9.75-12.9-3.89-16.47" style="fill:#2d2d2d"></path>
      <path d="M372.53 347.27c-2.75 8.73-12.16 18.05-23.3 18.87-2.96-1.8-17.99-11.64-16.18-24.64.71-5.08 3.03-8.11 6.38-8.32.13-.01.25-.01.38-.01 4.3 0 9.92 4.46 12.24 13.02.24.9 1.06 1.52 1.99 1.53h.01c.93 0 1.74-.62 1.99-1.51.82-2.95 3.92-10.94 8.34-12.41 1.73-.58 3.59-.08 5.68 1.53 4.37 3.34 3.43 8.91 2.47 11.94" style="fill:#ffc0d7"></path>
      <path d="M207.69 240.21h-.21c-23.53.11-32.37 26.59-33.16 29.13-3.74 8-4.09 22.63 1.82 33.45 3.95 7.23 10.1 11.57 17.8 12.55 1.58.2 3.11.3 4.6.3 20.29 0 32.47-17.93 37.21-35.64 3.07-11.45 1.59-22.21-4.04-29.51-5.2-6.73-13.5-10.28-24.02-10.28" style="fill:#2d2d2d"></path>
      <path d="M231.74 278.94c-2.12 7.93-10.56 32.58-33.11 32.58-1.34 0-2.74-.09-4.18-.27-6.42-.81-11.36-4.32-14.69-10.43-5.24-9.59-4.93-22.96-1.65-29.83.05-.1.08-.2.11-.3.08-.26 8.11-26.24 29.27-26.34h.19c9.19 0 16.36 3 20.74 8.68 4.84 6.26 6.05 15.71 3.32 25.91" style="fill:#383838"></path>
      <path d="M229.23 306.37c-4.08.24-7.26 5.1-7.84 6.04-1.55 2.11-1.75 5.37-.46 7.98 1.23 2.5 3.49 3.94 6.22 3.94 3.29 0 6.71-2.27 8.32-5.53 1.59-3.22 1.2-6.78-1.08-9.76-1.81-2.35-3.81-2.75-5.16-2.67" style="fill:#2d2d2d"></path>
      <path d="M231.75 316.97c-.91 1.84-2.89 3.23-4.61 3.23-1.13 0-1.98-.55-2.51-1.62-.61-1.24-.56-2.88.1-3.74.05-.06.1-.13.14-.2.97-1.62 3.1-4.06 4.59-4.14h.08c.25 0 .8.09 1.55 1.06 1.68 2.18 1.29 4.15.66 5.41" style="fill:#383838"></path>
    </g>
    <path id="bening_barang_00000016042347694940105050000017994959364696676794_" d="M436.47 298.82c-5.33 0-5.32-8.27 0-8.27 5.33 0 5.32 8.27 0 8.27m-3.13 10.69c-1.26-.35-2.92.43-3.18 1.81-3.57 18.74-9.71 36.93-18.33 53.95-1.5 2.96 2.96 5.58 4.46 2.61 8.81-17.41 15.2-36.01 18.85-55.19.27-1.37-.37-2.79-1.8-3.18M191.86 422.82c-5.32 0-5.33 8.27 0 8.27s5.33-8.27 0-8.27m56.5 8.55c-10.84-.3-21.63-1.43-32.29-3.42-1.3-.24-1.86 1.75-.55 1.99 10.84 2.02 21.82 3.19 32.84 3.49 1.33.04 1.33-2.02 0-2.06m91.06-92.23c-2.66 0-2.67 4.14 0 4.14 2.66 0 2.67-4.14 0-4.14m8.58 18.79c-2.7-2.12-4.65-5.04-5.51-8.37-.33-1.29-2.33-.74-1.99.55.94 3.64 3.08 6.96 6.04 9.28.44.34 1.03.43 1.46 0 .36-.36.44-1.12 0-1.46M155.97 462.48c-7.32 0-7.33 11.37 0 11.37 7.32 0 7.33-11.37 0-11.37m89.05 10.64c-20.89.63-41.81-.34-62.55-2.9-1.39-.17-2.58 1.31-2.58 2.58 0 1.54 1.19 2.41 2.58 2.58 20.74 2.56 41.66 3.53 62.55 2.9 3.32-.1 3.34-5.27 0-5.16m91.25-430.88a2.4 2.4 0 0 0-.64-1c-.28-.3-.61-.52-1-.64a2.46 2.46 0 0 0-1.2-.27c-.27.04-.55.07-.82.11-.53.15-.98.41-1.37.8l-.48.63c-.28.48-.42 1.01-.42 1.57v.66q-.03.645.27 1.2c.05.15.12.29.2.43-.18 1.14.47 2.44 1.97 2.44.95 0 1.56-.53 1.83-1.21.38-.16.73-.36 1.03-.65l.48-.63c.28-.48.42-1.01.42-1.57v-.66c.02-.44-.07-.84-.27-1.21m-14.65 12.83c-.94-.94-2.73-1.05-3.66 0-16.42 18.65-20.85 44.09-20.32 68.21.16 7.55.77 15.09 1.5 22.6.14 1.39 1.09 2.58 2.58 2.58 1.29 0 2.72-1.19 2.58-2.58-2.32-23.85-3.39-49.26 7.13-71.48 2.68-5.65 6.04-10.98 10.18-15.68.93-1.04 1.04-2.61.01-3.65" style="fill:#fff"></path>
    <path id="bayangan_baju_white_00000177470707257189667660000017828295565694980287_" d="M80.05 188.69s36.71 12.27 39.59 28-20.83 27.47-15.74 35.47c5.08 7.99 9.54 18.59 13.8 43.77s31.92 40.62 31.92 40.62c-18.69-5.83-41.49-29.25-43.71-48.81-2.22-19.57-3.1-28.29-13.91-36.26s12.14-10.63 13.91-26.22c1.77-15.58-36.57-32.14-36.57-32.14 55.6-79.63 154.88-55.53 154.88-55.53-109.91-12.4-144.17 51.1-144.17 51.1m189.57-13.2s38.89 31.61 50.36 84.37c0 .01-2.51-59.98-50.36-84.37M136.15 355.12s-21.83 6.05-30.25 32.63-18.81 47.63-29.73 49.97l12.01 21.4s-.66-13.04.66-19.27 14.84-35.59 20.16-52.09 27.15-32.64 27.15-32.64m-12.08 38.22S93.27 420.97 109 454.2c0 .01-2.88-41.29 15.07-60.86" style="fill:#8e8e8e"></path>
    <path id="dahi_bening_00000129190072080614476920000017431243018617796781_" d="M218.12 207.66c0 6.03-4.89 10.91-10.91 10.91-6.03 0-10.91-4.89-10.91-10.91 0-6.03 4.89-10.91 10.91-10.91s10.91 4.89 10.91 10.91m6.09-10.91s6.2 7.98 0 18.17c0 0 25.31-9.08 49.41 1.77 0 0-14.4-23.48-49.41-19.94" style="fill:#d3d3d3"></path>
    <path id="mata_00000169541591173891846770000011039023286495239344_" d="M226.2 268.1c.04 1.07-.18 2.06-.67 2.99-.31.96-.85 1.79-1.6 2.5l-.66.66c-.97.96-2.11 1.63-3.42 1.99-.69.09-1.37.18-2.06.28-1.4 0-2.7-.36-3.91-1.06l-1.57-1.21c-.76-.7-1.29-1.53-1.6-2.5-.49-.92-.71-1.92-.67-2.99-.04-1.07.18-2.06.67-2.99.31-.96.85-1.79 1.6-2.5l.66-.66c.97-.96 2.11-1.63 3.42-1.99.69-.09 1.37-.18 2.06-.28 1.4 0 2.7.36 3.91 1.06l1.57 1.21c.76.7 1.29 1.53 1.6 2.5.49.92.72 1.92.67 2.99m47.42-13.08c-9.98 0-10 15.51 0 15.51 9.98 0 9.99-15.51 0-15.51" style="fill:#fff"></path>
    <path d="M184.12 279.47c-.68 25.27 15.72 28.96 15.72 28.96-23.8-1.07-27.89-30.45-10.34-49.97s32.64-5.87 32.64-5.87c-8.82-4.74-37.34 1.61-38.02 26.88m83.52-31.52s-19.78-1.91-19.94 20.37 11.71 25.43 11.71 25.43l3.68-4.91s-10.54 2.3-11.95-18.01 18.49-22.92 18.49-22.92" style="fill:#8e8e8e"></path>
    <path id="bayang_baju_item_00000002382605554389932910000003007353050708613783_" d="M93.95 468.92s-1.51-55.08 30.12-84.98c0 0-30.16 39.43-20.17 84.98m32.25 8.39c-16.72-12.34-7.65-63.68-7.65-63.68-7.98 15.71-6.64 58.94-6.64 58.94" style="fill:#2d2d2d"></path>
    <g id="outlie_00000135664659525916135940000012380843051049908366_">
      <path d="M348.73 370.24c-.34 0-.67-.09-.97-.25-.86-.48-21.11-11.94-18.73-29.05.98-7.06 4.78-11.48 10.16-11.82 5.04-.32 11.2 3.3 14.86 10.8 1.74-3.82 4.69-8.53 9.05-9.99 3.07-1.03 6.25-.3 9.46 2.17 4.62 3.55 6.03 9.53 3.87 16.4-3.17 10.08-13.93 21.13-27.59 21.75-.05-.01-.08-.01-.11-.01m-8.92-37.15c-.13 0-.26 0-.38.01-3.39.21-5.74 3.27-6.45 8.38-1.82 13.11 13.31 22.95 16.23 24.72 11.17-.81 20.62-10.16 23.38-18.92.96-3.04 1.91-8.64-2.49-12.02-2.11-1.63-3.99-2.13-5.75-1.54-4.45 1.48-7.56 9.5-8.39 12.46-.24.87-1.03 1.46-1.93 1.46h-.01c-.9 0-1.69-.61-1.92-1.48-2.31-8.59-7.97-13.07-12.29-13.07" style="fill:#2d2d2d"></path>
      <path d="M253.99 414.65c-4.32 0-10.76-.59-14.71-4.72-2.61-2.73-3.73-6.52-3.33-11.28 1.11-13.28 23.39-119.01 32.57-127.17 3.87-3.44 30.99-5.7 80.61-6.71 39.54-.81 77.44-.42 84.91.46 7.2.85 12.54 1.77 15.73 5.93 3.64 4.74 4.05 12.88 1.53 30.02-3.83 26.06-25.43 104.65-41.71 109.74-14.31 4.47-146.08 3.67-151.71 3.64-.31 0-.7.01-1.18.03-.73.02-1.66.06-2.71.06m137.85-146.32c-12.96 0-27.68.13-42.45.43-69.67 1.41-77.38 5-78.21 5.7-7.07 6.28-29.84 107.74-31.24 124.52-.3 3.62.43 6.29 2.23 8.18 3.66 3.83 11.17 3.55 14.37 3.43.55-.02 1.01-.04 1.35-.04 47.25.31 139.51-.02 150.49-3.45 5.46-1.71 13.88-17.84 22.52-43.16 7.35-21.52 14.1-47.57 16.42-63.34 2.28-15.52 2.07-23.34-.75-27.01-2.24-2.92-6.61-3.64-13.02-4.39-4.41-.53-20.75-.87-41.71-.87" style="fill:#2d2d2d"></path>
      <path d="M251.14 414.55a2 2 0 0 1-1.97-2.35c.06-.31 5.65-31.86 12.36-63.38 13.81-64.83 18.67-66.38 21.01-67.12 9.92-3.16 161.64-4.19 168.1-4.23h.01c1.1 0 1.99.89 2 1.99s-.88 2.01-1.99 2.01c-43.79.29-159.15 1.57-166.91 4.04-1.2.69-6.28 7.49-18.52 65.13-6.6 31.11-12.07 61.95-12.13 62.26-.17.97-1.01 1.65-1.96 1.65" style="fill:#2d2d2d"></path>
      <path d="M245.66 441.85c-27.97 0-51.21-.47-60.25-1.61-21.44-2.72-26.42-10.01-27.49-14.11-1.04-4.01.77-8.2 4.84-11.2 8.71-6.42 74.63-5.8 82.12-5.71 1.1.01 1.99.92 1.98 2.02s-.92 2-2.02 1.98c-27.77-.34-73.96.7-79.7 4.93-2.75 2.03-3.97 4.57-3.34 6.97.51 1.96 3.76 8.56 24.12 11.15 26.86 3.41 195.58.39 210.72-2.64 7.82-1.56 13.99-6.61 15.36-12.56.92-3.99-.58-7.71-4.22-10.47a1.995 1.995 0 0 1-.38-2.8c.67-.88 1.92-1.05 2.8-.38 4.89 3.72 6.97 9.02 5.69 14.55-1.72 7.46-9.14 13.72-18.48 15.59-10.85 2.17-92.07 4.29-151.75 4.29" style="fill:#2d2d2d"></path>
      <path d="M159.13 428.75c-1.51 0-5.16-.34-8.33-3.26-3.66-3.37-5.43-8.93-5.25-16.53.18-7.68 3.4-14.44 9.32-19.54 8.89-7.66 22.94-10.94 38.57-8.98 18.83 2.35 24.47 12.01 26.02 16.05 1.94 5.07 1.29 10.37-1.71 13.83-.72.83-1.99.92-2.82.2s-.92-1.99-.2-2.82c2-2.31 2.39-6.14 1-9.77-1.29-3.37-6.1-11.43-22.78-13.52-14.51-1.81-27.43 1.12-35.46 8.04-5.04 4.34-7.78 10.08-7.93 16.6-.15 6.36 1.17 10.88 3.91 13.45 2.67 2.5 5.83 2.25 5.97 2.24 1.08-.1 2.07.7 2.18 1.8.11 1.09-.68 2.07-1.77 2.18-.06.01-.31.03-.72.03" style="fill:#2d2d2d"></path>
      <path d="M203.37 413.69a1.994 1.994 0 0 1-1.58-3.21c1.33-1.74 1.86-3.41 1.62-5.11-.44-3.14-3.39-5.36-3.42-5.38a2.007 2.007 0 0 1-.42-2.79c.65-.89 1.9-1.08 2.79-.43.18.13 4.31 3.2 5.01 8.01.4 2.79-.4 5.53-2.4 8.13-.41.51-1 .78-1.6.78M190.1 414.31c-.41 0-.83-.13-1.19-.39a2.01 2.01 0 0 1-.42-2.8c.88-1.19 1.21-2.33 1.01-3.5-.43-2.55-3.17-4.48-3.2-4.49a2.006 2.006 0 0 1-.53-2.78c.62-.91 1.86-1.15 2.78-.53.17.12 4.17 2.88 4.89 7.13.38 2.27-.2 4.47-1.74 6.55-.38.53-.99.81-1.6.81M175.38 415.64c-.27 0-.55-.06-.81-.17a2.01 2.01 0 0 1-1.02-2.64c.54-1.22 1.05-2.92.4-4.07-.68-1.2-2.49-1.66-3.14-1.73a2.01 2.01 0 0 1-1.76-2.21 2.01 2.01 0 0 1 2.19-1.77c.44.05 4.34.54 6.16 3.7 1.21 2.09 1.14 4.69-.2 7.71-.33.73-1.06 1.18-1.82 1.18M281.6 490.83c-14.12 0-28.01-.29-41.09-.95-8.14-.41-15.65-.78-22.58-1.12-61.15-2.98-77.58-3.78-81.58-16.22-2.71-8.43.59-22.4 7.52-31.8 5.48-7.43 12.43-11.35 20.13-11.35h.24c1.1.01 1.99.92 1.98 2.02s-.9 2.01-2.02 1.98h-.2c-8.04 0-13.63 5.28-16.91 9.73-6.88 9.33-8.96 21.91-6.94 28.2 3.15 9.8 20.5 10.65 77.97 13.45 6.93.34 14.45.7 22.59 1.12 78.96 4.02 185.82-6.02 191.47-8.28 4.86-1.94 6.89-11.95 1.1-26.66-5.34-13.56-24.13-19.91-24.31-19.97a2 2 0 0 1-1.27-2.53 1.99 1.99 0 0 1 2.52-1.27c.84.28 20.75 6.98 26.78 22.3 6.11 15.51 4.74 28.61-3.33 31.84-6.08 2.43-81.74 9.51-152.07 9.51M235.4 351.75c-.36 0-.72-.01-1.08-.02-4.92-.2-7.89-2.31-9.53-4.56-2.34 2.59-6.44 5.01-12.71 4.49-9.43-.79-12.01-11.31-12.68-15.84-8.7.42-42.69-.68-53.79-41.95-6.93-25.75-2.04-54.36 13.07-76.53 13.1-19.22 32.51-31.17 54.68-33.65 27.32-3.06 52.24 3.82 70.18 19.38 17.61 15.27 27.36 37.73 28.2 64.94a2 2 0 1 1-4 .12c-.8-26.07-10.07-47.52-26.82-62.04-17.09-14.82-40.92-21.36-67.12-18.42-20.98 2.35-39.39 13.69-51.82 31.93-14.46 21.22-19.14 48.6-12.51 73.24 11.77 43.77 49.81 39.08 51.42 38.86.55-.08 1.11.08 1.54.44.43.35.69.87.73 1.43.01.13.92 13.42 9.25 14.11 8.56.72 10.78-5.3 10.8-5.36.31-.87 1.17-1.42 2.09-1.32.92.09 1.65.8 1.78 1.72.08.47.96 4.77 7.4 5.03 7.56.32 12.56-3.3 12.61-3.33.89-.65 2.14-.46 2.79.42.65.89.47 2.13-.41 2.79-.23.16-5.66 4.12-14.07 4.12" style="fill:#2d2d2d"></path>
      <path d="M246.25 357.12c-.24 0-.48-.04-.72-.14l-15-5.81c-4.18 2.38-21.99 10.86-48.22.35-37.24-14.92-53.01-42.2-46.88-81.08 3.24-20.58 12.83-41.49 27.73-60.47 12.24-15.59 27.99-29.6 43.21-38.44 14.12-8.2 26.55-9.74 39.12-4.84 11.29 4.4 22.96 14.09 37.85 31.41 27.07 31.5 34.06 67.49 34.13 67.85.2 1.09-.51 2.13-1.6 2.33a1.99 1.99 0 0 1-2.33-1.6c-.07-.35-6.89-35.33-33.23-65.99-28.56-33.24-47.38-39.97-71.92-25.72-28.56 16.58-62.33 53.72-69 96.07-5.8 36.79 9.15 62.61 44.42 76.74 27.43 10.99 45.26-.41 45.44-.53.54-.36 1.22-.43 1.83-.2l15.92 6.17c1.03.4 1.54 1.56 1.14 2.59-.33.82-1.09 1.31-1.89 1.31" style="fill:#2d2d2d"></path>
      <path d="M184.45 359.27c-14.9 0-36.85-4.41-60.76-24.04-29.24-24.01-30.7-39.71-31.87-52.33-.53-5.71-.99-10.65-4.01-15.51-4.07-6.54-7.27-9.68-9.18-11.55-3.98-3.9-3.46-5.35.51-9.89.97-1.11 2.06-2.21 3.2-3.37 6.43-6.5 12.5-12.65 3.84-23.3-10.7-13.16-35.66-10.82-35.91-10.79-.72.07-1.43-.25-1.84-.85s-.47-1.37-.15-2.02c.38-.78 9.6-19.28 30.52-38.53 19.3-17.76 52.57-39.37 101.47-41.46 44.05-1.88 82.17 12.37 110.26 41.21 25.09 25.76 40.11 61.05 42.31 99.38a2 2 0 0 1-1.88 2.11c-1.1.08-2.05-.78-2.11-1.88-4.06-70.96-56.37-140.73-148.41-136.82-47.62 2.03-80.02 23.03-98.81 40.29-15.5 14.23-24.56 28.34-28.07 34.39 7.86-.19 26.21.74 35.73 12.45 10.92 13.44 2.24 22.22-4.1 28.63-1.1 1.12-2.14 2.17-3.04 3.19-.65.74-1.94 2.22-2.22 2.82.22.33.9.99 1.49 1.58 2.04 2 5.46 5.34 9.78 12.29 3.52 5.66 4.04 11.29 4.59 17.25 1.1 11.88 2.48 26.66 30.43 49.61 40.62 33.35 76.03 20.61 76.38 20.48 1.04-.39 2.19.13 2.58 1.17.39 1.03-.13 2.18-1.16 2.58-.67.24-7.99 2.91-19.57 2.91" style="fill:#2d2d2d"></path>
      <path d="M372.65 268.33c-.31 0-.63-.07-.93-.23-8.29-4.35-44.11-21.47-44.47-21.64-1-.48-1.42-1.67-.94-2.67s1.67-1.42 2.67-.94c1.48.71 36.25 17.32 44.61 21.71a1.999 1.999 0 0 1-.94 3.77M66.39 426.55c-.31 0-.66-.07-1.05-.25-4.05-1.93-32.89-33.81-34.55-107.64-1.77-78.74 24.62-110.38 25.74-111.69.72-.84 1.98-.93 2.82-.21s.93 1.98.21 2.82c-.26.31-26.51 31.97-24.78 108.99 1.36 60.49 21.14 92.06 29.31 101.32.43-31.35 51.77-87.64 54.07-90.15.75-.81 2.01-.87 2.83-.12.81.75.87 2.01.12 2.83-.58.63-58.04 63.63-52.68 91.6.15.8-.14 1.59-.76 2.07-.22.15-.66.43-1.28.43M54.94 196.49c-4.87 0-11.52-1.82-13.87-8.85-1.66-4.98-1.02-9.54 1.8-12.83 5.04-5.87 16.35-7.36 33.63-4.43a2.01 2.01 0 0 1 1.64 2.31 2.005 2.005 0 0 1-2.31 1.64c-20.71-3.52-27.64.42-29.92 3.09-2.4 2.8-1.89 6.42-1.04 8.97 2.53 7.58 11.98 6 12.38 5.93 1.08-.2 2.12.53 2.32 1.62a2 2 0 0 1-1.62 2.32c-.86.13-1.89.23-3.01.23" style="fill:#2d2d2d"></path>
      <path d="M66.08 422.08c-.9 0-1.72-.61-1.94-1.53-5.17-21.17.19-46.16 15.5-72.27 11.49-19.59 24.29-32.73 24.83-33.28.77-.79 2.04-.8 2.83-.03s.8 2.04.03 2.83c-.51.52-51.23 52.96-39.3 101.8a2.008 2.008 0 0 1-1.95 2.48M132.59 480.29q-1.035 0-2.19-.18c-6.01-.95-8.2-3.8-10.73-7.1-1.43-1.86-3.05-3.98-5.74-6.19-2.59-2.13-3.22-1.72-5.9.01-2.9 1.88-7.28 4.71-16.04 3.98-13.16-1.1-14.41-6.41-15.74-12.03-.45-1.92-.92-3.9-1.9-5.94-3.6-7.52-15.86-11.06-15.98-11.1-.9-.26-1.51-1.11-1.45-2.04.06-.94.76-1.71 1.69-1.86 18.3-2.87 31.64-34.91 40.08-58.76 10.37-29.32 34.66-39.33 35.69-39.74s2.19.09 2.6 1.11c.41 1.03-.09 2.19-1.11 2.6-.31.13-23.68 9.86-33.41 37.36-8.57 24.23-20.38 52.01-37.38 59.62 4.44 2.05 10.29 5.64 12.89 11.07 1.16 2.43 1.7 4.73 2.18 6.75 1.23 5.22 1.91 8.1 12.18 8.96 7.4.62 10.8-1.59 13.53-3.35 2.84-1.83 5.77-3.73 10.62.26 3.04 2.5 4.88 4.9 6.37 6.84 2.34 3.04 3.75 4.88 8.18 5.58 1.99.31 3.42.08 4.24-.7 1-.95 1.06-2.71 1-3.31-.11-1.09.68-2.08 1.77-2.2a1.99 1.99 0 0 1 2.2 1.75c.05.42.4 4.15-2.19 6.64-1.36 1.32-3.19 1.97-5.46 1.97M259.21 304q-.375 0-.75-.15c-.65-.26-16-6.72-18.08-30.6-1.01-11.65 3.78-22.25 12.83-28.34 7.89-5.31 17.71-6.09 25.63-2.04 16.59 8.48 20.17 23.41 20.32 24.05.25 1.08-.43 2.15-1.5 2.4-1.08.25-2.15-.43-2.4-1.5-.03-.13-3.37-13.77-18.24-21.38-6.73-3.44-14.8-2.77-21.58 1.8-7.82 5.27-11.97 14.49-11.08 24.68 1.85 21.32 15.04 27.01 15.6 27.24 1.02.42 1.51 1.59 1.09 2.61-.31.76-1.05 1.23-1.84 1.23M198.52 315.57c-1.49 0-3.01-.1-4.59-.3-7.68-.97-13.81-5.3-17.75-12.52-5.9-10.8-5.55-25.41-1.81-33.4.78-2.5 9.6-28.98 33.1-29.09 10.64-.03 18.96 3.5 24.17 10.26 5.62 7.28 7.08 18.02 4.03 29.45-4.73 17.7-16.89 35.6-37.15 35.6m9.17-71.29h-.19c-21.21.1-29.25 26.12-29.33 26.39-.03.1-.07.19-.11.29-3.29 6.89-3.59 20.28 1.65 29.89 3.34 6.13 8.3 9.65 14.74 10.46 1.45.18 2.85.27 4.19.27 22.6 0 31.05-24.68 33.17-32.63 2.73-10.22 1.52-19.68-3.33-25.97-4.4-5.7-11.58-8.7-20.79-8.7M227.14 324.27c-2.7 0-4.94-1.42-6.16-3.9-1.27-2.6-1.08-5.83.46-7.92.57-.93 3.73-5.78 7.79-6.01 1.34-.07 3.32.32 5.1 2.65 2.26 2.96 2.65 6.49 1.07 9.69-1.6 3.23-4.99 5.49-8.26 5.49m2.41-13.84h-.09c-1.67.1-3.89 2.9-4.64 4.17-.04.07-.09.14-.14.2-.68.88-.73 2.55-.11 3.81.37.76 1.12 1.66 2.57 1.66 1.74 0 3.75-1.4 4.67-3.27.63-1.28 1.03-3.27-.66-5.48-.76-1-1.33-1.09-1.6-1.09M249.52 325.04c-.98 0-2.05-.19-3.1-.72-2.37-1.21-3.84-3.78-4.36-7.64-.93-6.83 3.39-8.27 4.73-8.55 4.32-.9 9.57 2.34 10.79 6.68.3 1.06-.32 2.17-1.38 2.47s-2.17-.32-2.47-1.38c-.7-2.49-4.05-4.28-6.13-3.85-1.38.29-1.91 1.67-1.58 4.1.23 1.7.8 3.88 2.21 4.61 1.47.76 3.5-.25 3.52-.26.98-.5 2.18-.13 2.69.84s.15 2.17-.82 2.69c-.26.14-1.98 1.01-4.1 1.01M471.03 243.8H327.54c-.94 0-1.76-.66-1.96-1.58-1.17-5.52-2.65-11.02-4.39-16.34-.2-.61-.09-1.28.28-1.8.38-.52.98-.83 1.62-.83h52.58v-69.19h-64.54v40.38a2.001 2.001 0 0 1-3.72 1.03c-4.74-7.96-10.23-15.41-16.31-22.14-.33-.37-.52-.85-.52-1.34v-68.1c0-45.61 37.11-82.72 82.72-82.72h25.26c45.61 0 82.72 37.11 82.72 82.72v129.64c.02 5.67-4.59 10.27-10.25 10.27m-141.88-4h141.88c3.46 0 6.27-2.81 6.27-6.27V103.89c0-43.41-35.31-78.72-78.72-78.72h-25.26c-43.41 0-78.72 35.31-78.72 78.72v67.33a142 142 0 0 1 12.54 16.28v-35.44c0-1.1.9-2 2-2h68.54c1.1 0 2 .9 2 2v73.19c0 1.1-.9 2-2 2h-51.85c1.27 4.13 2.38 8.33 3.32 12.55m133.61-12.54h-68.54c-1.1 0-2-.9-2-2v-73.19c0-1.1.9-2 2-2h68.54c1.1 0 2 .9 2 2v73.19a2 2 0 0 1-2 2m-66.54-4h64.54v-69.19h-64.54zm66.54-85.73h-68.54c-1.1 0-2-.9-2-2V39.71c0-1.1.9-2 2-2h4.36c36.49 0 66.18 29.69 66.18 66.18v31.64c0 1.1-.9 2-2 2m-66.54-4h64.54v-29.64c0-34.29-27.89-62.18-62.18-62.18h-2.36zm-18.54 4h-68.54c-1.1 0-2-.9-2-2v-31.64c0-36.49 29.69-66.18 66.18-66.18h4.36c1.1 0 2 .9 2 2v95.81c0 1.11-.9 2.01-2 2.01m-66.54-4h64.54V41.71h-2.36c-34.29 0-62.18 27.89-62.18 62.18z" style="fill:#2d2d2d"></path>
    </g>
  </g>
</svg>
