<svg xmlns="http://www.w3.org/2000/svg" id="system-admin" viewBox="0 0 64 64">
  <path d="m39.8,41.57l-6.8-1.57h-16l-6.8,1.57c-3.63.84-6.2,4.07-6.2,7.8v4.64c0,.55.45,1,1,1h40c.55,0,1-.45,1-1v-4.64c0-3.73-2.57-6.96-6.2-7.8Z" style="fill:#e6e7e8"></path>
  <polygon points="25 39 22 44 23 48 27 48 28 44 25 39" style="fill:#a7a9ac"></polygon>
  <polygon points="28 55 22 55 23 48 27 48 28 55" style="fill:#bcbec0"></polygon>
  <path d="m28,3h-5c-1.66,0-3,1.34-3,3h-2c-3.31,0-6,2.69-6,6v10h26v-9c0-5.52-4.48-10-10-10Z" style="fill:#5e48b4"></path>
  <path d="M35.5 19h-1.5v5h1.5c1.38 0 2.5-1.12 2.5-2.5s-1.12-2.5-2.5-2.5ZM12 21.5c0 1.38 1.12 2.5 2.5 2.5h1.5v-5h-1.5c-1.38 0-2.5 1.12-2.5 2.5Z" style="fill:#e6e7e8"></path>
  <polygon points="20 38 25 43 30 38 30 33.48 20 33.43 20 38" style="fill:#e6e7e8"></polygon>
  <path d="M20 14h0s0 1 0 1c0 2.21-1.79 4-4 4h0v6.69c0 4.79 3.62 8.98 8.4 9.29 5.24.34 9.6-3.81 9.6-8.98v-7h-1.93c-4.53 0-8.87-1.8-12.07-5ZM25 43l3.15 2.79c.46.36 1.11.25 1.43-.26l3.41-5.53-3-2-5 5Z" style="fill:#f1f2f2"></path>
  <path d="m25,43l-3.15,2.79c-.46.36-1.11.25-1.43-.26l-3.41-5.53,3-2,5,5Z" style="fill:#f1f2f2"></path>
  <path d="m58.59,46.18h-.36c-1.26,0-1.89-1.52-1-2.41l.26-.26c.55-.55.55-1.45,0-2l-2-2c-.55-.55-1.45-.55-2,0l-.26.26c-.89.89-2.41.26-2.41-1v-.36c0-.78-.63-1.41-1.41-1.41h-2.82c-.78,0-1.41.63-1.41,1.41v.36c0,1.26-1.52,1.89-2.41,1l-.26-.26c-.55-.55-1.45-.55-2,0l-2,2c-.55.55-.55,1.45,0,2l.26.26c.89.89.26,2.41-1,2.41h-.36c-.78,0-1.41.63-1.41,1.41v2.82c0,.78.63,1.41,1.41,1.41h.36c1.26,0,1.89,1.52,1,2.41l-.26.26c-.55.55-.55,1.45,0,2l2,2c.55.55,1.45.55,2,0l.26-.26c.89-.89,2.41-.26,2.41,1v.36c0,.78.63,1.41,1.41,1.41h2.82c.78,0,1.41-.63,1.41-1.41v-.36c0-1.26,1.52-1.89,2.41-1l.26.26c.55.55,1.45.55,2,0l2-2c.55-.55.55-1.45,0-2l-.26-.26c-.89-.89-.26-2.41,1-2.41h.36c.78,0,1.41-.63,1.41-1.41v-2.82c0-.78-.63-1.41-1.41-1.41Z" style="fill:#1fa4d7"></path>
  <circle cx="48" cy="49" r="5" style="fill:#2180d6"></circle>
</svg>
