<svg xmlns="http://www.w3.org/2000/svg" id="tech-skills" viewBox="0 0 64 64">
  <path d="M21 46h-2v-2.08c2.39-1.38 4-3.97 4-6.92v-.13c1.73-.44 3-2.01 3-3.87v-3c0-5.51-4.49-10-10-10h-2c-5.51 0-10 4.49-10 10v3c0 1.86 1.27 3.43 3 3.87v.13c0 2.95 1.61 5.54 4 6.92v2.08h-2c-3.86 0-7 3.14-7 7v8c0 .55.45 1 1 1s1-.45 1-1v-8c0-2.76 2.24-5 5-5h2.14c.45 1.72 2 3 3.86 3s3.41-1.28 3.86-3h2.14c2.76 0 5 2.24 5 5v8c0 .55.45 1 1 1s1-.45 1-1v-8c0-3.86-3.14-7-7-7Zm-4 1c0 1.1-.9 2-2 2s-2-.9-2-2v-2.25c.64.16 1.31.25 2 .25s1.36-.09 2-.25v2.25Zm.61-4.6c-.79.39-1.67.6-2.61.6s-1.82-.21-2.61-.6c-1-.48-1.85-1.24-2.45-2.17-.59-.93-.94-2.04-.94-3.23v-4.02c4.33-.18 6.73-1.52 7.9-2.47 1.19 1.18 3.05 1.9 4.1 2.24v4.25c0 2.38-1.39 4.43-3.39 5.4ZM61 2H29c-.55 0-1 .45-1 1v32c0 .55.45 1 1 1h7v5c0 .4.24.77.62.92.12.06.25.08.38.08.26 0 .52-.1.71-.29l5.7-5.71h17.59c.55 0 1-.45 1-1V3c0-.55-.45-1-1-1Zm-3 18.6c0 .43-.28.81-.68.95l-2.26.75c-.16.51-.37 1.01-.61 1.49l1.06 2.12c.19.38.12.85-.19 1.15l-2.26 2.26c-.3.31-.77.39-1.15.19l-2.12-1.06c-.48.24-.98.45-1.49.61l-.75 2.26c-.14.4-.52.68-.95.68h-3.2c-.43 0-.81-.28-.95-.68l-.75-2.26c-.51-.16-1.01-.37-1.49-.61l-2.12 1.06c-.38.19-.85.12-1.15-.19l-2.26-2.26c-.31-.3-.38-.77-.19-1.15l1.06-2.12c-.24-.48-.45-.98-.61-1.49l-2.26-.75c-.4-.14-.68-.52-.68-.95v-3.2c0-.43.28-.81.68-.95l2.26-.75c.16-.51.37-1.01.61-1.49l-1.06-2.12c-.19-.38-.12-.85.19-1.15l2.26-2.26c.3-.31.77-.38 1.15-.19l2.12 1.06c.48-.24.98-.45 1.49-.61l.75-2.26c.14-.4.52-.68.95-.68h3.2c.43 0 .81.28.95.68l.75 2.26c.51.16 1.01.37 1.49.61l2.12-1.06c.38-.2.85-.12 1.15.19l2.26 2.26c.31.3.38.77.19 1.15l-1.06 2.12c.24.48.45.98.61 1.49l2.26.75c.4.14.68.52.68.95v3.2Z"></path>
  <path d="m45,13c-3.31,0-6,2.69-6,6s2.69,6,6,6,6-2.69,6-6-2.69-6-6-6Zm2.47,5.4l-2.18,2.51c-.2.23-.48.34-.76.34-.21,0-.42-.06-.6-.2l-1.25-.94c-.44-.33-.53-.96-.19-1.4.33-.44.95-.53,1.4-.2l.5.38,1.57-1.8c.36-.42.99-.46,1.41-.1.42.37.46,1,.1,1.41Z"></path>
</svg>
