<svg xmlns="http://www.w3.org/2000/svg" width="25" height="25" id="user-avatar">
  <g fill="#fff" transform="translate(4.417 -1032.375)">
    <circle cx="8.083" cy="1044.875" r="12.5" fill="#1d67b1"></circle>
    <path fill="#154082" d="M12.904 24.986a12.5 12.5 0 0 0 .48-.017 12.5 12.5 0 0 0 1.241-.15 12.5 12.5 0 0 0 1.219-.274 12.5 12.5 0 0 0 1.185-.395 12.5 12.5 0 0 0 1.14-.51 12.5 12.5 0 0 0 1.085-.622 12.5 12.5 0 0 0 1.016-.727 12.5 12.5 0 0 0 .939-.824 12.5 12.5 0 0 0 .852-.914 12.5 12.5 0 0 0 .755-.994 12.5 12.5 0 0 0 .655-1.067 12.5 12.5 0 0 0 .543-1.125 12.5 12.5 0 0 0 .3-.828l-9.128-9.127a2.99 2.99 0 0 0-2.12-.88c-1.653 0-3 1.346-3 3v2a2.945 2.945 0 0 0 .084.675c.033.14.075.275.127.406.013.032.022.065.036.096.068.158.151.307.246.45l.062.085c.084.118.178.23.277.334.016.017.027.037.043.053l.082.08.51.512c-2.31.654-4.044 2.732-4.12 5.256a.5.5 0 0 0 .5.515l4.991 4.992z" color="#000" font-family="sans-serif" font-weight="400" style="line-height:normal;text-indent:0;text-align:start;text-decoration-line:none;text-decoration-style:solid;text-decoration-color:#000;text-transform:none;block-progression:tb;isolation:auto;mix-blend-mode:normal" transform="translate(-4.417 1032.375)"></path>
    <path d="M8 1.03c-1.653 0-3 1.346-3 3v2c0 1.148.657 2.138 1.61 2.642-2.383.606-4.186 2.728-4.264 5.305a.5.5 0 0 0 .5.515l10.308.016a.5.5 0 0 0 .5-.514A5.662 5.662 0 0 0 9.391 8.67 2.991 2.991 0 0 0 11 6.03v-2c0-1.654-1.347-3-3-3zm0 1c1.117 0 2 .883 2 2v2c0 1.116-.883 2-2 2s-2-.884-2-2v-2c0-1.117.883-2 2-2zm.14 7.464v.002c2.289.07 4.083 1.797 4.4 4.012l-9.075-.018c.339-2.31 2.283-4.069 4.676-3.996Z" color="#000" font-family="sans-serif" font-weight="400" overflow="visible" style="line-height:normal;text-indent:0;text-align:start;text-decoration-line:none;text-decoration-style:solid;text-decoration-color:#000;text-transform:none;block-progression:tb;isolation:auto;mix-blend-mode:normal" transform="translate(.649 1037.877)"></path>
  </g>
</svg>
